<svg id="svg" version="1.1" xmlns="http://www.w3.org/2000/svg" xmlns:xlink="http://www.w3.org/1999/xlink" width="400" height="165.71428571428572" viewBox="0, 0, 400,165.71428571428572"><g id="svgg"><path id="path0" d="M30.333 24.978 C 29.934 25.093,29.915 25.158,29.869 26.595 C 29.826 27.958,29.789 28.107,29.453 28.255 C 29.132 28.395,29.077 28.565,29.034 29.542 C 28.992 30.507,28.941 30.667,28.677 30.667 C 28.274 30.667,28.167 30.984,28.167 32.180 C 28.167 33.037,28.125 33.167,27.851 33.167 C 27.492 33.167,27.333 33.477,27.333 34.180 L 27.333 34.667 22.101 34.667 C 16.250 34.667,16.667 34.571,16.667 35.917 C 16.667 37.027,16.769 37.167,17.590 37.167 C 18.210 37.167,18.318 37.219,18.363 37.542 C 18.397 37.779,18.551 37.936,18.781 37.969 C 19.009 38.001,19.166 38.158,19.198 38.385 C 19.230 38.610,19.387 38.770,19.608 38.801 C 19.805 38.829,20.004 38.998,20.051 39.176 C 20.119 39.438,20.283 39.500,20.901 39.500 C 21.607 39.500,21.667 39.533,21.667 39.917 C 21.667 40.250,21.750 40.333,22.083 40.333 C 22.414 40.333,22.500 40.417,22.500 40.741 C 22.500 41.109,22.577 41.153,23.292 41.199 C 23.967 41.243,24.091 41.305,24.137 41.625 C 24.171 41.866,24.305 42.000,24.512 42.000 C 24.787 42.000,24.833 42.121,24.833 42.833 C 24.833 43.556,24.789 43.667,24.500 43.667 C 24.244 43.667,24.167 43.778,24.167 44.143 C 24.167 45.362,23.959 46.167,23.644 46.167 C 23.371 46.167,23.333 46.306,23.333 47.315 C 23.333 48.401,23.311 48.470,22.917 48.568 C 22.543 48.662,22.500 48.757,22.500 49.492 C 22.500 50.149,22.438 50.331,22.185 50.411 C 21.543 50.615,21.408 53.082,22.027 53.311 C 22.577 53.514,23.167 53.344,23.167 52.981 C 23.167 52.762,23.286 52.667,23.559 52.667 C 23.775 52.667,24.154 52.479,24.401 52.250 C 24.648 52.021,25.034 51.833,25.259 51.833 C 25.583 51.833,25.667 51.748,25.667 51.417 C 25.667 51.083,25.750 51.000,26.083 51.000 C 26.417 51.000,26.500 50.917,26.500 50.583 C 26.500 50.220,26.573 50.167,27.071 50.167 C 27.614 50.167,28.167 49.824,28.167 49.488 C 28.167 49.403,28.354 49.333,28.583 49.333 C 28.917 49.333,29.000 49.250,29.000 48.917 C 29.000 48.583,29.083 48.500,29.417 48.500 C 29.750 48.500,29.833 48.417,29.833 48.083 C 29.833 47.702,29.895 47.667,30.571 47.667 C 31.134 47.667,31.327 47.597,31.385 47.375 C 31.458 47.097,31.462 47.097,31.481 47.375 C 31.496 47.607,31.654 47.667,32.250 47.667 C 32.939 47.667,33.000 47.701,33.000 48.083 C 33.000 48.417,33.083 48.500,33.417 48.500 C 33.750 48.500,33.833 48.583,33.833 48.917 C 33.833 49.245,33.918 49.333,34.232 49.333 C 34.518 49.333,34.660 49.451,34.735 49.750 C 34.827 50.117,34.929 50.167,35.587 50.167 C 36.272 50.167,36.333 50.201,36.333 50.583 C 36.333 50.917,36.417 51.000,36.750 51.000 C 37.083 51.000,37.167 51.083,37.167 51.417 C 37.167 51.750,37.250 51.833,37.583 51.833 C 37.881 51.833,38.000 51.923,38.000 52.149 C 38.000 52.520,38.312 52.667,39.097 52.667 C 39.544 52.667,39.667 52.734,39.667 52.981 C 39.667 53.312,40.120 53.468,40.792 53.367 C 41.406 53.274,41.366 51.000,40.750 51.000 C 40.345 51.000,40.333 50.967,40.333 49.833 C 40.333 48.778,40.302 48.667,40.000 48.667 C 39.717 48.667,39.667 48.556,39.667 47.938 C 39.667 46.740,39.498 46.167,39.146 46.167 C 38.880 46.167,38.833 46.035,38.831 45.292 C 38.828 44.098,38.691 43.667,38.314 43.667 C 38.048 43.667,38.000 43.538,38.000 42.833 C 38.000 42.056,38.028 42.000,38.417 42.000 C 38.750 42.000,38.833 41.917,38.833 41.583 C 38.833 41.201,38.894 41.167,39.583 41.167 C 40.272 41.167,40.333 41.133,40.333 40.750 C 40.333 40.417,40.417 40.333,40.750 40.333 C 41.083 40.333,41.167 40.250,41.167 39.917 C 41.167 39.583,41.250 39.500,41.583 39.500 C 41.885 39.500,42.000 39.411,42.000 39.176 C 42.000 38.907,42.136 38.843,42.792 38.801 C 43.460 38.758,43.591 38.693,43.635 38.385 C 43.668 38.158,43.825 38.001,44.052 37.969 C 44.280 37.936,44.436 37.779,44.469 37.550 C 44.513 37.241,44.643 37.176,45.302 37.134 L 46.083 37.083 46.083 35.917 L 46.083 34.750 40.803 34.706 L 35.523 34.662 35.470 34.289 C 35.436 34.051,35.282 33.898,35.042 33.863 C 34.694 33.814,34.667 33.726,34.667 32.655 C 34.667 31.534,34.654 31.500,34.250 31.500 C 33.843 31.500,33.833 31.472,33.833 30.250 C 33.833 29.028,33.824 29.000,33.417 29.000 C 33.003 29.000,33.000 28.989,33.000 27.496 C 33.000 26.058,32.982 25.985,32.596 25.838 C 32.362 25.749,32.169 25.523,32.138 25.301 C 32.079 24.883,31.208 24.728,30.333 24.978 M14.625 49.448 C 14.384 49.511,14.333 49.718,14.333 50.639 C 14.333 51.636,14.293 51.772,13.958 51.919 C 13.631 52.062,13.577 52.226,13.534 53.208 C 13.497 54.046,13.424 54.333,13.248 54.333 C 12.874 54.333,12.667 54.900,12.667 55.923 C 12.667 56.733,12.607 56.916,12.250 57.196 C 12.010 57.385,11.833 57.696,11.833 57.929 L 11.833 58.333 8.167 58.333 C 4.992 58.333,4.500 58.299,4.500 58.079 C 4.500 57.764,3.823 57.490,3.349 57.614 C 2.666 57.793,2.615 59.874,3.292 59.970 C 3.563 60.008,3.667 60.135,3.667 60.428 C 3.667 60.744,3.754 60.833,4.064 60.833 C 4.316 60.833,4.492 60.951,4.545 61.154 C 4.606 61.386,4.837 61.505,5.388 61.588 C 5.994 61.679,6.158 61.774,6.199 62.059 C 6.231 62.283,6.390 62.437,6.625 62.470 C 6.866 62.504,7.000 62.638,7.000 62.845 C 7.000 63.114,7.120 63.167,7.738 63.167 C 8.377 63.167,8.484 63.217,8.530 63.542 C 8.563 63.776,8.717 63.936,8.941 63.968 C 9.374 64.029,9.435 64.330,9.362 66.042 C 9.315 67.155,9.266 67.333,9.006 67.333 C 8.644 67.333,8.505 67.780,8.502 68.958 C 8.500 69.721,8.457 69.833,8.167 69.833 C 7.878 69.833,7.833 69.944,7.833 70.667 C 7.833 71.444,7.806 71.500,7.417 71.500 C 7.012 71.500,7.000 71.533,7.000 72.667 L 7.000 73.833 8.167 73.833 C 9.300 73.833,9.333 73.821,9.333 73.417 C 9.333 73.083,9.417 73.000,9.750 73.000 C 10.081 73.000,10.167 72.916,10.167 72.592 C 10.167 72.225,10.244 72.180,10.958 72.134 C 11.634 72.091,11.758 72.028,11.803 71.708 C 11.842 71.437,11.968 71.333,12.262 71.333 C 12.556 71.333,12.667 71.242,12.667 71.000 C 12.667 70.756,12.778 70.667,13.083 70.667 C 13.414 70.667,13.500 70.583,13.500 70.260 C 13.500 69.900,13.582 69.847,14.208 69.801 C 14.755 69.762,14.954 69.665,15.081 69.375 C 15.180 69.150,15.392 69.000,15.611 69.000 C 15.863 69.000,15.993 69.116,16.030 69.375 C 16.074 69.686,16.203 69.759,16.781 69.801 C 17.354 69.842,17.489 69.917,17.531 70.217 C 17.564 70.449,17.721 70.603,17.958 70.637 C 18.199 70.671,18.333 70.805,18.333 71.012 C 18.333 71.241,18.449 71.333,18.738 71.333 C 19.032 71.333,19.158 71.437,19.197 71.708 C 19.242 72.028,19.366 72.091,20.042 72.134 C 20.756 72.180,20.833 72.225,20.833 72.592 C 20.833 72.916,20.919 73.000,21.250 73.000 C 21.583 73.000,21.667 73.083,21.667 73.417 C 21.667 73.821,21.700 73.833,22.833 73.833 L 24.000 73.833 24.000 72.667 C 24.000 71.622,23.966 71.500,23.676 71.500 C 23.407 71.500,23.343 71.364,23.301 70.708 C 23.258 70.038,23.194 69.909,22.882 69.864 C 22.547 69.817,22.510 69.705,22.465 68.614 C 22.421 67.530,22.382 67.412,22.054 67.365 C 21.727 67.318,21.687 67.198,21.638 66.115 C 21.555 64.285,21.616 64.000,22.094 64.000 C 22.416 64.000,22.500 63.914,22.500 63.583 C 22.500 63.201,22.561 63.167,23.250 63.167 C 23.889 63.167,24.000 63.117,24.000 62.833 C 24.000 62.589,24.111 62.500,24.417 62.500 C 24.750 62.500,24.833 62.417,24.833 62.083 C 24.833 61.753,24.917 61.667,25.239 61.667 C 25.858 61.667,26.500 61.372,26.500 61.087 C 26.500 60.928,26.654 60.833,26.917 60.833 C 27.250 60.833,27.333 60.750,27.333 60.417 C 27.333 60.083,27.417 60.000,27.750 60.000 C 28.380 60.000,28.396 57.912,27.768 57.673 C 27.239 57.472,26.701 57.628,26.578 58.018 C 26.483 58.315,26.262 58.333,22.822 58.333 L 19.167 58.333 19.167 57.956 C 19.167 57.725,19.022 57.515,18.792 57.415 C 18.459 57.269,18.407 57.098,18.333 55.917 C 18.259 54.735,18.207 54.565,17.875 54.419 C 17.539 54.272,17.500 54.136,17.500 53.130 C 17.500 52.070,17.476 52.000,17.083 51.902 C 16.690 51.803,16.667 51.733,16.667 50.668 C 16.667 49.358,16.150 49.050,14.625 49.448 M99.833 54.750 C 99.833 54.979,99.906 55.167,99.996 55.167 C 100.085 55.167,100.283 55.410,100.436 55.708 C 100.588 56.006,100.770 56.288,100.839 56.333 C 100.908 56.379,101.267 56.829,101.637 57.333 C 102.462 58.457,102.818 58.917,103.250 59.421 C 103.433 59.635,103.829 60.134,104.130 60.530 C 104.738 61.331,106.174 63.190,106.680 63.833 C 106.861 64.063,107.384 64.737,107.843 65.333 C 108.302 65.929,108.858 66.642,109.078 66.917 C 110.189 68.302,110.500 68.724,110.500 68.845 C 110.500 68.918,110.643 69.023,110.817 69.078 C 110.991 69.133,111.181 69.366,111.238 69.596 C 111.333 69.972,111.415 70.008,112.078 69.965 L 112.813 69.917 112.490 69.573 C 112.254 69.322,112.167 68.990,112.167 68.349 C 112.167 67.609,112.114 67.455,111.833 67.382 C 111.575 67.314,111.500 67.154,111.500 66.668 C 111.500 65.628,111.322 65.036,110.982 64.947 C 110.739 64.884,110.667 64.712,110.667 64.203 C 110.667 63.072,110.492 62.500,110.146 62.500 C 109.894 62.500,109.833 62.375,109.833 61.854 C 109.833 60.805,109.652 60.184,109.313 60.077 C 109.066 59.998,109.000 59.813,108.998 59.197 C 108.995 58.097,108.849 57.667,108.481 57.667 C 108.211 57.667,108.167 57.536,108.167 56.739 C 108.167 55.726,107.957 55.167,107.577 55.167 C 107.428 55.167,107.333 55.005,107.333 54.750 L 107.333 54.333 103.583 54.333 L 99.833 54.333 99.833 54.750 M118.040 64.458 L 118.083 74.583 127.981 74.626 C 135.153 74.657,137.942 74.617,138.106 74.481 C 138.293 74.326,138.333 72.531,138.333 64.313 L 138.333 54.333 128.165 54.333 L 117.997 54.333 118.040 64.458 M314.667 54.742 C 314.667 54.966,314.565 55.210,314.441 55.283 C 314.060 55.509,313.833 56.109,313.833 56.897 C 313.833 57.469,313.733 57.758,313.417 58.099 C 313.091 58.450,313.000 58.726,313.000 59.358 C 313.000 59.938,312.934 60.167,312.768 60.167 C 312.475 60.167,312.392 60.386,312.248 61.542 C 312.159 62.255,312.059 62.489,311.816 62.553 C 311.544 62.624,311.500 62.797,311.500 63.806 C 311.500 64.893,311.473 64.981,311.125 65.030 C 310.785 65.078,310.745 65.187,310.701 66.185 C 310.658 67.170,310.609 67.306,310.243 67.473 C 309.869 67.643,309.833 67.754,309.833 68.746 C 309.833 69.582,309.778 69.833,309.593 69.833 C 309.461 69.833,309.299 69.920,309.234 70.026 C 309.156 70.152,309.195 70.177,309.349 70.097 C 309.478 70.030,309.452 70.083,309.292 70.214 C 308.910 70.527,308.922 70.774,309.324 70.879 C 309.710 70.980,309.833 70.882,309.833 70.472 C 309.833 70.256,309.957 70.167,310.259 70.167 C 310.581 70.167,310.726 70.046,310.858 69.667 C 310.954 69.392,311.091 69.167,311.163 69.167 C 311.234 69.167,311.619 68.735,312.019 68.208 C 312.418 67.681,312.896 67.091,313.081 66.896 C 313.265 66.701,313.604 66.265,313.833 65.928 C 314.063 65.590,314.326 65.224,314.419 65.115 C 314.594 64.910,315.788 63.372,316.295 62.701 C 316.453 62.490,316.771 62.102,317.000 61.838 C 317.229 61.575,317.679 60.999,318.000 60.560 C 318.321 60.120,318.696 59.632,318.833 59.474 C 318.971 59.317,319.216 59.014,319.378 58.802 C 319.540 58.590,320.065 57.903,320.544 57.275 C 321.024 56.648,321.502 55.985,321.606 55.803 C 321.710 55.621,321.878 55.388,321.981 55.286 C 322.083 55.184,322.167 54.927,322.167 54.717 L 322.167 54.333 318.417 54.333 L 314.667 54.333 314.667 54.742 M224.833 56.083 C 224.833 56.221,224.687 56.333,224.508 56.333 C 224.043 56.333,223.287 56.695,223.032 57.039 C 222.912 57.201,222.734 57.333,222.635 57.333 C 222.536 57.333,222.287 57.502,222.081 57.708 C 221.458 58.334,219.644 59.916,218.583 60.758 C 218.033 61.195,217.455 61.672,217.299 61.818 C 217.143 61.964,216.775 62.271,216.481 62.500 C 216.187 62.729,215.790 63.067,215.599 63.250 C 215.408 63.433,214.689 64.052,214.001 64.625 C 213.313 65.197,212.597 65.816,212.411 66.000 C 212.224 66.183,211.984 66.333,211.877 66.333 C 211.771 66.333,211.623 66.437,211.550 66.564 C 211.477 66.691,210.629 67.450,209.667 68.252 C 205.987 71.314,205.991 71.333,210.250 71.333 C 213.327 71.333,213.500 71.317,213.500 71.018 C 213.500 70.821,213.656 70.664,213.917 70.598 C 214.221 70.522,214.333 70.382,214.333 70.080 C 214.333 69.772,214.422 69.667,214.682 69.667 C 214.886 69.667,215.066 69.534,215.115 69.347 C 215.161 69.172,215.379 68.983,215.599 68.928 C 215.908 68.850,216.000 68.715,216.000 68.340 C 216.000 68.072,216.075 67.807,216.167 67.750 C 216.258 67.693,216.333 67.731,216.333 67.833 C 216.333 67.936,216.413 67.971,216.510 67.911 C 216.622 67.842,216.576 67.717,216.385 67.573 C 216.103 67.358,216.102 67.344,216.375 67.339 C 216.574 67.335,216.667 67.200,216.667 66.917 C 216.667 66.583,216.750 66.500,217.083 66.500 C 217.417 66.500,217.500 66.417,217.500 66.083 C 217.500 65.753,217.584 65.667,217.906 65.667 C 218.224 65.667,218.323 65.568,218.364 65.208 C 218.393 64.956,218.492 64.762,218.583 64.776 C 218.788 64.807,219.077 64.490,219.100 64.208 C 219.109 64.094,219.128 63.813,219.142 63.583 C 219.161 63.257,219.257 63.167,219.583 63.167 C 219.917 63.167,220.000 63.083,220.000 62.750 C 220.000 62.417,220.083 62.333,220.417 62.333 C 220.753 62.333,220.833 62.251,220.833 61.907 C 220.833 61.653,220.904 61.524,221.007 61.588 C 221.328 61.786,221.667 61.302,221.667 60.646 C 221.667 60.113,221.724 60.000,221.997 60.000 C 222.210 60.000,222.364 59.852,222.432 59.583 C 222.507 59.284,222.649 59.167,222.935 59.167 C 223.249 59.167,223.333 59.078,223.333 58.750 C 223.333 58.444,223.422 58.333,223.667 58.333 C 223.911 58.333,224.000 58.222,224.000 57.917 C 224.000 57.583,224.083 57.500,224.417 57.500 C 224.754 57.500,224.833 57.418,224.833 57.068 C 224.833 56.783,224.942 56.607,225.151 56.552 C 225.658 56.420,225.726 55.833,225.234 55.833 C 224.989 55.833,224.833 55.930,224.833 56.083 M302.847 56.455 C 302.625 56.496,302.239 56.735,301.989 56.986 C 301.524 57.451,300.424 58.346,298.500 59.827 C 297.904 60.286,297.267 60.802,297.083 60.976 C 296.900 61.149,296.188 61.710,295.500 62.222 C 294.813 62.735,294.100 63.297,293.917 63.472 C 293.733 63.647,292.608 64.551,291.417 65.482 C 289.178 67.231,288.258 67.962,287.931 68.250 C 287.503 68.627,286.347 69.500,286.276 69.500 C 286.050 69.500,285.000 70.747,285.000 71.017 C 285.000 71.319,285.178 71.333,288.833 71.333 L 292.667 71.333 292.667 70.909 C 292.667 70.667,292.756 70.497,292.875 70.512 C 293.336 70.572,293.500 70.485,293.500 70.178 C 293.500 69.971,293.634 69.837,293.875 69.803 C 294.144 69.765,294.265 69.620,294.303 69.292 C 294.332 69.040,294.425 68.824,294.511 68.813 C 294.597 68.801,294.759 68.782,294.872 68.771 C 295.009 68.757,295.059 68.508,295.024 68.021 C 294.972 67.302,294.979 67.292,295.451 67.362 C 295.888 67.426,295.928 67.390,295.899 66.966 C 295.872 66.576,295.932 66.500,296.267 66.500 C 296.582 66.500,296.667 66.412,296.667 66.083 C 296.667 65.750,296.750 65.667,297.083 65.667 C 297.472 65.667,297.500 65.611,297.500 64.833 C 297.500 64.056,297.528 64.000,297.917 64.000 C 298.250 64.000,298.333 63.917,298.333 63.583 C 298.333 63.250,298.417 63.167,298.750 63.167 C 299.056 63.167,299.167 63.078,299.167 62.833 C 299.167 62.589,299.278 62.500,299.583 62.500 C 299.918 62.500,300.000 62.417,300.000 62.078 C 300.000 61.846,300.117 61.611,300.260 61.557 C 300.402 61.502,300.479 61.351,300.429 61.222 C 300.379 61.093,300.450 60.945,300.586 60.893 C 300.722 60.840,300.833 60.623,300.833 60.410 C 300.833 60.136,300.942 60.008,301.208 59.970 C 301.449 59.936,301.602 59.783,301.637 59.542 C 301.675 59.270,301.802 59.167,302.095 59.167 C 302.413 59.167,302.500 59.079,302.500 58.762 C 302.500 58.468,302.604 58.342,302.875 58.303 C 303.116 58.269,303.269 58.116,303.303 57.875 C 303.337 57.634,303.471 57.500,303.678 57.500 C 303.935 57.500,304.000 57.382,304.000 56.917 C 304.000 56.298,303.897 56.257,302.847 56.455 M111.833 71.396 C 111.833 71.672,112.313 71.808,112.498 71.585 C 112.676 71.371,112.642 71.333,112.270 71.333 C 112.030 71.333,111.833 71.362,111.833 71.396 M18.533 74.867 C 18.420 74.980,18.333 75.522,18.333 76.117 C 18.333 77.036,18.294 77.167,18.018 77.167 C 17.597 77.167,17.500 77.478,17.500 78.827 C 17.500 80.352,17.577 80.317,14.071 80.371 L 11.083 80.417 11.083 81.583 L 11.083 82.750 11.875 82.801 C 12.590 82.847,12.667 82.891,12.667 83.259 C 12.667 83.580,12.753 83.667,13.072 83.667 C 13.365 83.667,13.492 83.770,13.530 84.042 C 13.565 84.284,13.717 84.436,13.963 84.471 C 15.031 84.622,15.766 86.892,14.792 87.030 C 14.451 87.078,14.412 87.186,14.368 88.198 C 14.323 89.202,14.282 89.317,13.951 89.364 C 13.612 89.413,13.583 89.507,13.583 90.583 L 13.583 91.750 14.209 91.802 C 14.749 91.846,14.856 91.795,14.996 91.427 C 15.137 91.056,15.257 91.000,15.913 91.000 C 16.606 91.000,16.667 90.966,16.667 90.583 C 16.667 90.250,16.750 90.167,17.083 90.167 C 17.417 90.167,17.500 90.083,17.500 89.750 C 17.500 89.417,17.583 89.333,17.917 89.333 C 18.250 89.333,18.333 89.250,18.333 88.917 C 18.333 88.529,18.390 88.500,19.149 88.500 C 19.879 88.500,19.975 88.543,20.068 88.917 C 20.161 89.284,20.262 89.333,20.920 89.333 C 21.605 89.333,21.667 89.368,21.667 89.750 C 21.667 90.083,21.750 90.167,22.083 90.167 C 22.417 90.167,22.500 90.250,22.500 90.583 C 22.500 90.938,22.577 91.000,23.018 91.000 C 23.327 91.000,23.735 91.168,24.030 91.417 C 25.050 92.275,25.667 91.955,25.667 90.569 C 25.667 89.575,25.640 89.500,25.250 89.402 C 24.885 89.310,24.833 89.207,24.833 88.568 C 24.833 87.930,24.782 87.827,24.417 87.735 C 24.009 87.633,24.000 87.595,24.000 86.074 L 24.000 84.518 24.792 84.467 C 25.467 84.424,25.591 84.362,25.637 84.042 C 25.675 83.770,25.802 83.667,26.095 83.667 C 26.413 83.667,26.500 83.580,26.500 83.259 C 26.500 82.891,26.577 82.847,27.292 82.801 L 28.083 82.750 28.083 81.583 L 28.083 80.417 24.892 80.371 L 21.702 80.326 21.640 78.974 C 21.587 77.795,21.531 77.589,21.206 77.373 C 20.887 77.162,20.833 76.977,20.833 76.096 C 20.833 75.518,20.746 74.979,20.633 74.867 C 20.374 74.607,18.793 74.607,18.533 74.867 M32.247 91.395 C 32.151 92.417,32.074 92.652,31.815 92.720 C 31.564 92.785,31.500 92.957,31.500 93.568 L 31.500 94.333 30.670 94.333 C 29.920 94.333,29.829 94.293,29.733 93.910 C 29.631 93.502,29.584 93.488,28.522 93.535 L 27.417 93.583 27.367 94.708 C 27.319 95.816,27.325 95.833,27.742 95.833 C 28.084 95.833,28.167 95.915,28.167 96.250 C 28.167 96.639,28.222 96.667,29.000 96.667 C 29.778 96.667,29.833 96.694,29.833 97.083 C 29.833 97.422,29.919 97.504,30.292 97.519 C 30.643 97.534,30.672 97.558,30.417 97.622 C 29.933 97.743,29.839 97.972,29.836 99.030 C 29.834 99.884,29.797 99.982,29.458 100.030 C 29.058 100.087,28.859 101.082,29.076 101.945 C 29.205 102.460,30.316 102.521,30.447 102.020 C 30.507 101.787,30.741 101.678,31.348 101.597 C 32.002 101.510,32.167 101.425,32.167 101.173 C 32.167 100.972,32.303 100.837,32.542 100.803 C 32.783 100.769,32.936 100.616,32.970 100.375 C 33.008 100.107,33.136 100.000,33.417 100.000 C 33.698 100.000,33.825 100.107,33.863 100.375 C 33.899 100.622,34.051 100.769,34.311 100.806 C 34.528 100.836,34.742 101.002,34.787 101.173 C 34.844 101.393,35.082 101.517,35.595 101.594 C 36.103 101.670,36.353 101.798,36.423 102.020 C 36.612 102.617,37.698 102.369,37.874 101.688 C 38.112 100.770,37.976 100.092,37.542 100.030 C 37.214 99.984,37.166 99.878,37.164 99.197 C 37.161 98.160,37.024 97.700,36.691 97.612 C 36.505 97.562,36.538 97.532,36.792 97.519 C 37.073 97.505,37.167 97.398,37.167 97.092 C 37.167 96.725,37.244 96.680,37.958 96.634 C 38.627 96.591,38.758 96.527,38.802 96.219 C 38.834 95.991,38.991 95.834,39.219 95.802 C 39.646 95.741,39.749 95.296,39.587 94.217 L 39.477 93.485 38.364 93.534 C 37.353 93.579,37.245 93.618,37.197 93.958 C 37.150 94.289,37.047 94.333,36.331 94.333 L 35.518 94.333 35.467 93.542 C 35.424 92.871,35.360 92.742,35.049 92.698 C 34.714 92.650,34.676 92.538,34.632 91.448 L 34.583 90.250 33.473 90.201 L 32.363 90.152 32.247 91.395 M26.333 118.789 C 26.104 118.832,25.862 118.953,25.794 119.058 C 25.571 119.408,25.641 140.408,25.867 140.633 C 26.022 140.789,67.337 140.833,210.785 140.833 L 395.502 140.833 395.460 129.792 L 395.417 118.750 211.083 118.731 C 109.700 118.721,26.563 118.747,26.333 118.789 M225.736 122.918 C 226.808 123.392,227.833 124.109,227.833 124.384 C 227.833 124.482,227.995 124.734,228.192 124.944 C 228.580 125.356,228.727 126.684,228.417 126.971 C 228.325 127.056,227.500 127.173,226.583 127.232 L 224.917 127.338 224.385 126.837 C 224.093 126.561,223.739 126.171,223.598 125.970 C 223.396 125.682,223.141 125.593,222.379 125.546 C 220.134 125.407,219.840 126.859,222.000 127.415 C 226.908 128.681,227.898 129.205,228.842 131.037 C 230.022 133.328,228.796 136.152,226.056 137.454 C 224.597 138.146,220.105 138.151,218.639 137.461 C 216.413 136.413,214.675 133.202,216.051 132.679 C 217.902 131.975,219.970 132.347,220.427 133.465 C 221.120 135.158,224.123 135.372,224.428 133.749 C 224.634 132.652,223.745 132.061,220.928 131.420 C 220.293 131.276,219.693 131.094,219.595 131.017 C 219.497 130.940,219.154 130.792,218.833 130.688 C 215.891 129.737,215.178 125.789,217.572 123.707 C 219.162 122.326,223.457 121.910,225.736 122.918 M49.759 123.078 C 50.045 123.762,50.074 125.237,49.817 125.975 L 49.634 126.500 47.828 126.500 C 46.834 126.500,45.825 126.575,45.584 126.667 L 45.146 126.833 45.167 131.792 C 45.194 137.820,45.219 137.257,44.905 137.571 C 44.525 137.952,41.142 137.952,40.762 137.571 C 40.438 137.247,40.464 137.825,40.499 131.876 L 40.527 126.836 40.086 126.668 C 39.844 126.575,38.872 126.500,37.926 126.500 C 35.885 126.500,35.867 126.486,35.833 124.915 C 35.776 122.251,35.042 122.500,42.937 122.500 L 49.517 122.500 49.759 123.078 M73.267 122.912 C 73.437 123.144,73.500 123.789,73.500 125.293 C 73.500 128.122,73.391 128.000,75.917 128.000 C 78.446 128.000,78.330 128.134,78.380 125.176 C 78.406 123.668,78.482 122.951,78.633 122.800 C 78.978 122.456,82.571 122.500,82.924 122.852 C 83.273 123.202,83.339 137.175,82.993 137.592 C 82.724 137.916,78.758 137.945,78.552 137.625 C 78.478 137.510,78.380 136.217,78.334 134.750 C 78.229 131.417,78.425 131.667,75.913 131.667 C 73.368 131.667,73.500 131.498,73.500 134.750 C 73.500 138.001,73.630 137.833,71.098 137.833 C 69.517 137.833,68.995 137.778,68.843 137.595 C 68.629 137.337,68.543 123.512,68.753 122.968 C 68.975 122.390,72.850 122.342,73.267 122.912 M115.074 122.870 C 115.244 123.113,115.333 123.613,115.333 124.316 C 115.333 126.032,115.409 126.000,111.387 126.000 L 107.992 126.000 107.829 126.428 C 107.228 128.008,107.524 128.167,111.080 128.167 C 114.890 128.167,115.233 128.368,114.925 130.422 C 114.774 131.425,114.385 131.529,110.927 131.488 C 107.728 131.450,107.667 131.473,107.667 132.698 C 107.667 134.220,107.528 134.167,111.453 134.167 C 114.758 134.167,114.911 134.181,115.281 134.529 C 115.908 135.118,115.786 137.247,115.100 137.706 C 114.614 138.030,103.185 137.846,103.006 137.511 C 102.681 136.904,102.778 123.171,103.109 122.805 C 103.366 122.521,103.775 122.500,109.100 122.500 L 114.814 122.500 115.074 122.870 M169.342 122.977 C 172.899 124.124,173.113 129.656,169.643 130.758 C 169.463 130.815,169.340 130.912,169.371 130.972 C 169.402 131.033,169.531 131.290,169.657 131.542 C 169.783 131.794,169.947 132.000,170.021 132.000 C 170.219 132.000,171.500 133.779,171.500 134.054 C 171.500 134.183,171.640 134.467,171.810 134.686 C 171.981 134.904,172.177 135.271,172.246 135.500 C 172.315 135.729,172.518 136.077,172.698 136.273 C 172.919 136.515,173.007 136.810,172.970 137.190 L 172.917 137.750 170.699 137.797 C 168.184 137.849,167.892 137.740,167.250 136.499 C 165.716 133.534,165.364 132.926,164.897 132.430 C 163.598 131.053,163.435 131.278,163.333 134.572 C 163.273 136.524,163.186 137.361,163.021 137.559 C 162.710 137.932,158.985 137.967,158.680 137.599 C 158.471 137.348,158.386 123.492,158.590 122.960 C 158.821 122.357,167.463 122.371,169.342 122.977 M196.091 122.909 L 196.500 123.318 196.500 130.211 C 196.500 138.576,196.752 137.833,193.916 137.833 C 192.204 137.833,191.994 137.801,191.839 137.511 C 191.529 136.931,191.610 123.322,191.926 122.870 C 192.339 122.280,195.491 122.310,196.091 122.909 M260.438 122.925 C 260.633 123.224,260.707 123.656,260.685 124.377 C 260.636 126.029,260.707 126.000,256.720 126.000 L 253.325 126.000 253.163 126.428 C 252.561 128.008,252.857 128.167,256.413 128.167 C 260.222 128.167,260.566 128.368,260.258 130.419 C 260.109 131.417,259.744 131.517,256.333 131.494 C 252.936 131.470,253.000 131.449,253.000 132.612 C 253.000 134.233,252.836 134.167,256.815 134.167 C 261.096 134.167,261.149 134.191,261.070 136.093 C 260.993 137.933,261.373 137.833,254.404 137.833 C 248.749 137.833,248.505 137.820,248.339 137.511 C 247.968 136.817,248.117 123.217,248.500 122.833 C 248.820 122.513,249.056 122.500,254.496 122.500 L 260.159 122.500 260.438 122.925 M290.887 122.977 C 294.474 124.261,294.843 129.243,291.458 130.679 C 290.853 130.936,290.879 131.134,291.625 131.942 C 291.969 132.314,292.438 132.934,292.667 133.320 C 292.896 133.705,293.245 134.271,293.442 134.577 C 293.639 134.882,293.854 135.309,293.919 135.524 C 293.985 135.740,294.185 136.077,294.364 136.273 C 294.586 136.515,294.673 136.810,294.637 137.190 L 294.583 137.750 292.323 137.796 C 289.398 137.856,289.608 138.030,287.445 133.750 C 287.045 132.958,285.806 131.667,285.446 131.667 C 284.993 131.667,284.811 132.712,284.859 135.056 C 284.917 137.964,285.032 137.833,282.423 137.833 C 279.763 137.833,280.000 138.574,280.000 130.253 C 280.000 123.265,280.047 122.750,280.699 122.610 C 281.925 122.348,289.937 122.637,290.887 122.977 M341.425 122.941 L 341.833 123.382 341.833 130.119 C 341.833 136.811,341.793 137.355,341.267 137.706 C 340.809 138.011,337.352 137.847,337.173 137.511 C 336.862 136.931,336.943 123.322,337.259 122.870 C 337.689 122.257,340.841 122.311,341.425 122.941 M374.426 122.736 C 374.704 122.940,374.750 123.180,374.750 124.445 C 374.750 126.591,374.842 126.500,372.683 126.500 C 371.678 126.500,370.663 126.573,370.428 126.663 L 370.000 126.825 370.000 132.007 C 370.000 138.336,370.190 137.833,367.799 137.833 C 365.109 137.833,365.333 138.358,365.333 132.053 L 365.333 126.825 364.906 126.663 C 364.671 126.573,363.711 126.500,362.772 126.500 C 361.668 126.500,360.996 126.430,360.867 126.300 C 360.557 125.990,360.603 123.332,360.926 122.870 L 361.186 122.500 367.644 122.500 C 372.958 122.500,374.160 122.542,374.426 122.736 M163.444 125.944 C 163.275 126.114,163.317 128.216,163.496 128.499 C 163.613 128.684,163.932 128.741,164.733 128.718 C 168.187 128.622,168.252 125.833,164.800 125.833 C 164.115 125.833,163.506 125.883,163.444 125.944 M285.036 126.125 C 284.838 126.609,284.911 128.311,285.140 128.539 C 285.977 129.372,288.991 128.272,288.997 127.131 C 289.003 126.064,285.434 125.157,285.036 126.125 " stroke="none" fill="#fb0505" fill-rule="evenodd"></path><path id="path1" d="M220.417 122.492 C 215.587 123.308,214.436 129.267,218.833 130.688 C 219.154 130.792,219.497 130.940,219.595 131.017 C 219.693 131.094,220.293 131.276,220.928 131.420 C 223.745 132.061,224.634 132.652,224.428 133.749 C 224.123 135.372,221.120 135.158,220.427 133.465 C 219.970 132.347,217.902 131.975,216.051 132.679 C 214.675 133.202,216.413 136.413,218.639 137.461 C 220.105 138.151,224.597 138.146,226.056 137.454 C 228.796 136.152,230.022 133.328,228.842 131.037 C 227.898 129.205,226.908 128.681,222.000 127.415 C 219.840 126.859,220.134 125.407,222.379 125.546 C 223.141 125.593,223.396 125.682,223.598 125.970 C 223.739 126.171,224.093 126.561,224.385 126.837 L 224.917 127.338 226.583 127.232 C 227.500 127.173,228.325 127.056,228.417 126.971 C 228.727 126.684,228.580 125.356,228.192 124.944 C 227.995 124.734,227.833 124.482,227.833 124.384 C 227.833 123.177,223.263 122.012,220.417 122.492 M36.095 122.762 C 35.811 123.046,35.796 123.173,35.833 124.915 C 35.867 126.486,35.885 126.500,37.926 126.500 C 38.872 126.500,39.844 126.575,40.086 126.668 L 40.527 126.836 40.499 131.876 C 40.464 137.825,40.438 137.247,40.762 137.571 C 41.142 137.952,44.525 137.952,44.905 137.571 C 45.219 137.257,45.194 137.820,45.167 131.792 L 45.146 126.833 45.584 126.667 C 45.825 126.575,46.834 126.500,47.828 126.500 L 49.634 126.500 49.817 125.975 C 50.074 125.237,50.045 123.762,49.759 123.078 L 49.517 122.500 42.937 122.500 C 37.178 122.500,36.324 122.533,36.095 122.762 M69.222 122.607 C 69.024 122.651,68.813 122.813,68.753 122.968 C 68.543 123.512,68.629 137.337,68.843 137.595 C 68.995 137.778,69.517 137.833,71.098 137.833 C 73.630 137.833,73.500 138.001,73.500 134.750 C 73.500 131.498,73.368 131.667,75.913 131.667 C 78.425 131.667,78.229 131.417,78.334 134.750 C 78.380 136.217,78.478 137.510,78.552 137.625 C 78.758 137.945,82.724 137.916,82.993 137.592 C 83.339 137.175,83.273 123.202,82.924 122.852 C 82.571 122.500,78.978 122.456,78.633 122.800 C 78.482 122.951,78.406 123.668,78.380 125.176 C 78.330 128.134,78.446 128.000,75.917 128.000 C 73.391 128.000,73.500 128.122,73.500 125.293 C 73.500 122.558,73.536 122.602,71.309 122.560 C 70.360 122.543,69.421 122.564,69.222 122.607 M103.109 122.805 C 102.778 123.171,102.681 136.904,103.006 137.511 C 103.185 137.846,114.614 138.030,115.100 137.706 C 115.786 137.247,115.908 135.118,115.281 134.529 C 114.911 134.181,114.758 134.167,111.453 134.167 C 107.528 134.167,107.667 134.220,107.667 132.698 C 107.667 131.473,107.728 131.450,110.927 131.488 C 114.385 131.529,114.774 131.425,114.925 130.422 C 115.233 128.368,114.890 128.167,111.080 128.167 C 107.524 128.167,107.228 128.008,107.829 126.428 L 107.992 126.000 111.387 126.000 C 115.409 126.000,115.333 126.032,115.333 124.316 C 115.333 123.613,115.244 123.113,115.074 122.870 L 114.814 122.500 109.100 122.500 C 103.775 122.500,103.366 122.521,103.109 122.805 M159.056 122.607 C 158.857 122.651,158.648 122.809,158.590 122.960 C 158.386 123.492,158.471 137.348,158.680 137.599 C 158.985 137.967,162.710 137.932,163.021 137.559 C 163.186 137.361,163.273 136.524,163.333 134.572 C 163.435 131.278,163.598 131.053,164.897 132.430 C 165.364 132.926,165.716 133.534,167.250 136.499 C 167.892 137.740,168.184 137.849,170.699 137.797 L 172.917 137.750 172.970 137.190 C 173.007 136.810,172.919 136.515,172.698 136.273 C 172.518 136.077,172.315 135.729,172.246 135.500 C 172.177 135.271,171.981 134.904,171.810 134.686 C 171.640 134.467,171.500 134.183,171.500 134.054 C 171.500 133.779,170.219 132.000,170.021 132.000 C 169.947 132.000,169.783 131.794,169.657 131.542 C 169.531 131.290,169.402 131.033,169.371 130.972 C 169.340 130.912,169.463 130.815,169.643 130.758 C 173.113 129.656,172.899 124.124,169.342 122.977 C 168.282 122.635,160.247 122.346,159.056 122.607 M191.926 122.870 C 191.610 123.322,191.529 136.931,191.839 137.511 C 191.994 137.801,192.204 137.833,193.916 137.833 C 196.752 137.833,196.500 138.576,196.500 130.211 L 196.500 123.318 196.091 122.909 C 195.491 122.310,192.339 122.280,191.926 122.870 M248.500 122.833 C 248.117 123.217,247.968 136.817,248.339 137.511 C 248.505 137.820,248.749 137.833,254.404 137.833 C 261.373 137.833,260.993 137.933,261.070 136.093 C 261.149 134.191,261.096 134.167,256.815 134.167 C 252.836 134.167,253.000 134.233,253.000 132.612 C 253.000 131.449,252.936 131.470,256.333 131.494 C 259.744 131.517,260.109 131.417,260.258 130.419 C 260.566 128.368,260.222 128.167,256.413 128.167 C 252.857 128.167,252.561 128.008,253.163 126.428 L 253.325 126.000 256.720 126.000 C 260.707 126.000,260.636 126.029,260.685 124.377 C 260.707 123.656,260.633 123.224,260.438 122.925 L 260.159 122.500 254.496 122.500 C 249.056 122.500,248.820 122.513,248.500 122.833 M280.699 122.610 C 280.047 122.750,280.000 123.265,280.000 130.253 C 280.000 138.574,279.763 137.833,282.423 137.833 C 285.032 137.833,284.917 137.964,284.859 135.056 C 284.811 132.712,284.993 131.667,285.446 131.667 C 285.806 131.667,287.045 132.958,287.445 133.750 C 289.608 138.030,289.398 137.856,292.323 137.796 L 294.583 137.750 294.637 137.190 C 294.673 136.810,294.586 136.515,294.364 136.273 C 294.185 136.077,293.985 135.740,293.919 135.524 C 293.854 135.309,293.639 134.882,293.442 134.577 C 293.245 134.271,292.896 133.705,292.667 133.320 C 292.438 132.934,291.969 132.314,291.625 131.942 C 290.879 131.134,290.853 130.936,291.458 130.679 C 294.843 129.243,294.474 124.261,290.887 122.977 C 289.937 122.637,281.925 122.348,280.699 122.610 M337.259 122.870 C 336.943 123.322,336.862 136.931,337.173 137.511 C 337.352 137.847,340.809 138.011,341.267 137.706 C 341.793 137.355,341.833 136.811,341.833 130.119 L 341.833 123.382 341.425 122.941 C 340.841 122.311,337.689 122.257,337.259 122.870 M360.926 122.870 C 360.603 123.332,360.557 125.990,360.867 126.300 C 360.996 126.430,361.668 126.500,362.772 126.500 C 363.711 126.500,364.671 126.573,364.906 126.663 L 365.333 126.825 365.333 132.053 C 365.333 138.358,365.109 137.833,367.799 137.833 C 370.190 137.833,370.000 138.336,370.000 132.007 L 370.000 126.825 370.428 126.663 C 370.663 126.573,371.678 126.500,372.683 126.500 C 374.842 126.500,374.750 126.591,374.750 124.445 C 374.750 122.340,375.336 122.500,367.644 122.500 L 361.186 122.500 360.926 122.870 M166.606 126.180 C 168.187 127.158,167.084 128.653,164.733 128.718 C 163.932 128.741,163.613 128.684,163.496 128.499 C 163.317 128.216,163.275 126.114,163.444 125.944 C 163.727 125.662,166.047 125.835,166.606 126.180 M288.378 126.256 C 289.808 127.228,288.671 128.644,286.403 128.716 C 285.095 128.758,284.930 128.609,284.922 127.372 C 284.913 125.869,284.949 125.833,286.456 125.833 C 287.573 125.833,287.844 125.893,288.378 126.256 " stroke="none" fill="#fce1e1" fill-rule="evenodd"></path><path id="path2" d="M53.611 54.444 C 53.550 54.506,53.500 54.693,53.500 54.861 C 53.500 55.143,53.316 55.167,51.083 55.167 C 48.778 55.167,48.667 55.182,48.667 55.500 C 48.667 55.794,48.555 55.834,47.708 55.835 C 46.231 55.838,45.467 56.007,45.377 56.350 C 45.319 56.574,45.103 56.662,44.524 56.700 C 43.866 56.742,43.742 56.806,43.697 57.125 C 43.648 57.470,43.556 57.500,42.568 57.500 C 41.589 57.500,41.476 57.536,41.307 57.908 C 41.160 58.229,40.975 58.327,40.435 58.367 C 39.870 58.408,39.741 58.482,39.697 58.792 C 39.658 59.063,39.532 59.167,39.238 59.167 C 38.917 59.167,38.833 59.253,38.833 59.583 C 38.833 59.972,38.778 60.000,38.000 60.000 C 37.222 60.000,37.167 60.028,37.167 60.417 C 37.167 60.750,37.083 60.833,36.750 60.833 C 36.417 60.833,36.333 60.917,36.333 61.250 C 36.333 61.583,36.250 61.667,35.917 61.667 C 35.583 61.667,35.500 61.750,35.500 62.083 C 35.500 62.417,35.417 62.500,35.083 62.500 C 34.750 62.500,34.667 62.583,34.667 62.917 C 34.667 63.250,34.583 63.333,34.250 63.333 C 33.963 63.333,33.833 63.425,33.833 63.627 C 33.833 63.789,33.665 63.995,33.458 64.085 C 33.169 64.213,33.072 64.411,33.032 64.958 C 32.991 65.528,32.918 65.667,32.660 65.667 C 32.461 65.667,32.302 65.818,32.239 66.068 C 32.184 66.288,31.995 66.506,31.819 66.552 C 31.564 66.619,31.500 66.787,31.500 67.389 C 31.500 68.045,31.451 68.150,31.125 68.197 C 30.781 68.246,30.746 68.350,30.701 69.458 C 30.660 70.482,30.590 70.729,30.243 71.075 L 29.833 71.485 29.833 76.481 C 29.833 81.616,29.880 82.000,30.512 82.000 C 30.597 82.000,30.667 82.524,30.667 83.163 C 30.667 84.266,30.689 84.333,31.083 84.432 C 31.447 84.523,31.500 84.627,31.500 85.257 C 31.500 85.817,31.570 86.000,31.815 86.078 C 32.138 86.180,32.327 86.625,32.331 87.292 C 32.333 87.550,32.433 87.667,32.655 87.667 C 32.862 87.667,32.996 87.801,33.030 88.042 C 33.064 88.283,33.217 88.436,33.458 88.470 C 33.730 88.508,33.833 88.635,33.833 88.928 C 33.833 89.243,33.921 89.333,34.229 89.333 C 34.562 89.333,34.641 89.439,34.731 90.005 C 34.809 90.489,34.943 90.717,35.211 90.821 C 35.416 90.900,35.765 91.160,35.987 91.399 C 36.210 91.638,36.566 91.833,36.779 91.833 C 37.081 91.833,37.167 91.925,37.167 92.250 C 37.167 92.580,37.251 92.667,37.572 92.667 C 37.865 92.667,37.992 92.770,38.030 93.042 C 38.076 93.362,38.199 93.424,38.875 93.467 C 39.590 93.513,39.667 93.558,39.667 93.926 C 39.667 94.298,39.732 94.333,40.417 94.333 C 41.056 94.333,41.167 94.383,41.167 94.667 C 41.167 94.955,41.278 95.000,41.988 95.000 C 42.714 95.000,42.816 95.044,42.863 95.375 C 42.901 95.637,43.047 95.765,43.350 95.800 C 43.951 95.870,43.841 96.667,43.231 96.667 C 42.918 96.667,42.833 96.755,42.833 97.083 C 42.833 97.417,42.750 97.500,42.417 97.500 C 42.089 97.500,42.000 97.585,42.000 97.895 C 42.000 98.229,41.894 98.308,41.317 98.400 C 40.844 98.476,40.608 98.606,40.551 98.824 C 40.506 98.997,40.288 99.184,40.068 99.239 C 39.823 99.300,39.667 99.461,39.667 99.650 C 39.667 99.825,39.515 100.001,39.321 100.052 C 39.131 100.101,38.936 100.293,38.887 100.478 C 38.839 100.663,38.638 100.838,38.441 100.866 C 38.141 100.908,38.075 101.045,38.033 101.708 C 37.987 102.423,37.942 102.500,37.574 102.500 C 37.283 102.500,37.167 102.592,37.167 102.822 C 37.167 103.029,37.033 103.163,36.792 103.197 C 36.551 103.231,36.398 103.384,36.363 103.625 C 36.325 103.896,36.198 104.000,35.905 104.000 C 35.584 104.000,35.500 104.087,35.500 104.417 C 35.500 104.750,35.417 104.833,35.083 104.833 C 34.750 104.833,34.667 104.917,34.667 105.250 C 34.667 105.583,34.583 105.667,34.250 105.667 C 33.920 105.667,33.833 105.751,33.833 106.072 C 33.833 106.365,33.730 106.492,33.458 106.530 C 33.217 106.564,33.064 106.717,33.030 106.958 C 32.996 107.198,32.862 107.333,32.658 107.333 C 32.457 107.333,32.301 107.487,32.235 107.750 C 32.170 108.011,32.013 108.167,31.815 108.167 C 31.590 108.167,31.500 108.286,31.500 108.583 C 31.500 108.917,31.417 109.000,31.083 109.000 C 30.750 109.000,30.667 109.083,30.667 109.417 C 30.667 109.750,30.583 109.833,30.250 109.833 C 29.917 109.833,29.833 109.917,29.833 110.250 C 29.833 110.583,29.750 110.667,29.417 110.667 C 29.116 110.667,29.000 110.756,29.000 110.988 C 29.000 111.195,28.866 111.329,28.625 111.363 C 28.388 111.397,28.231 111.551,28.198 111.781 C 28.166 112.009,28.009 112.166,27.781 112.198 C 27.554 112.230,27.397 112.388,27.365 112.615 C 27.332 112.842,27.175 112.999,26.948 113.031 C 26.720 113.064,26.564 113.221,26.531 113.450 C 26.502 113.652,26.334 113.864,26.156 113.920 C 25.790 114.036,25.699 115.104,26.006 115.678 C 26.212 116.062,26.711 116.098,27.000 115.750 C 27.181 115.532,28.825 115.500,39.937 115.500 L 52.667 115.500 52.667 115.083 C 52.667 114.750,52.750 114.667,53.083 114.667 C 53.417 114.667,53.500 114.583,53.500 114.250 C 53.500 113.946,53.589 113.833,53.830 113.833 C 54.044 113.833,54.197 113.685,54.266 113.412 C 54.324 113.181,54.513 112.916,54.685 112.824 C 54.873 112.723,55.040 112.392,55.104 111.995 C 55.192 111.440,55.273 111.333,55.605 111.333 C 55.915 111.333,56.000 111.244,56.000 110.917 C 56.000 110.611,56.089 110.500,56.333 110.500 C 56.552 110.500,56.667 110.389,56.667 110.178 C 56.667 109.971,56.801 109.837,57.042 109.803 C 57.279 109.770,57.436 109.616,57.469 109.385 C 57.501 109.158,57.658 109.001,57.885 108.969 C 58.108 108.937,58.270 108.779,58.300 108.565 C 58.328 108.371,58.534 108.129,58.759 108.026 C 59.093 107.874,59.167 107.720,59.167 107.170 C 59.167 106.566,59.208 106.500,59.583 106.500 C 59.917 106.500,60.000 106.417,60.000 106.083 C 60.000 105.750,60.083 105.667,60.417 105.667 C 60.750 105.667,60.833 105.583,60.833 105.250 C 60.833 104.917,60.917 104.833,61.250 104.833 C 61.580 104.833,61.667 104.749,61.667 104.428 C 61.667 104.135,61.770 104.008,62.042 103.970 C 62.283 103.936,62.436 103.783,62.470 103.542 C 62.504 103.301,62.638 103.167,62.845 103.167 C 63.022 103.167,63.167 103.054,63.167 102.916 C 63.167 102.777,63.354 102.501,63.583 102.302 C 63.871 102.052,64.000 101.769,64.000 101.387 C 64.000 100.908,64.056 100.833,64.417 100.833 C 64.750 100.833,64.833 100.750,64.833 100.417 L 64.833 100.000 78.750 100.000 L 92.667 100.000 92.667 107.751 L 92.667 115.503 102.792 115.460 L 112.917 115.417 112.959 99.542 L 113.002 83.667 85.668 83.667 C 61.773 83.667,58.333 83.636,58.333 83.423 C 58.333 83.008,57.744 82.833,56.344 82.833 C 55.139 82.833,55.000 82.801,55.000 82.519 C 55.000 82.197,54.579 82.006,53.859 82.002 C 53.616 82.001,53.437 81.880,53.386 81.682 C 53.301 81.357,52.878 81.173,52.208 81.169 C 51.920 81.167,51.833 81.070,51.833 80.750 C 51.833 80.417,51.750 80.333,51.417 80.333 C 51.040 80.333,51.000 80.268,51.000 79.649 C 51.000 79.118,50.907 78.891,50.583 78.637 C 50.223 78.353,50.167 78.176,50.167 77.321 C 50.167 76.379,50.186 76.333,50.583 76.333 C 50.972 76.333,51.000 76.278,51.000 75.500 C 51.000 74.722,51.028 74.667,51.417 74.667 C 51.750 74.667,51.833 74.583,51.833 74.250 C 51.833 73.917,51.917 73.833,52.250 73.833 C 52.583 73.833,52.667 73.750,52.667 73.417 C 52.667 73.035,52.729 73.000,53.405 73.000 C 54.044 73.000,54.151 72.949,54.197 72.625 C 54.246 72.281,54.350 72.246,55.458 72.201 C 56.617 72.154,56.667 72.135,56.667 71.743 L 56.667 71.334 83.998 71.292 L 111.329 71.250 111.081 70.773 C 110.945 70.510,110.833 70.200,110.833 70.083 C 110.833 69.967,110.646 69.749,110.417 69.599 C 110.188 69.449,110.000 69.220,110.000 69.091 C 110.000 68.962,109.858 68.811,109.685 68.756 C 109.511 68.701,109.279 68.438,109.169 68.173 C 109.059 67.908,108.826 67.561,108.651 67.403 C 108.476 67.245,108.333 67.016,108.333 66.895 C 108.333 66.773,108.146 66.551,107.917 66.401 C 107.688 66.251,107.500 66.052,107.500 65.958 C 107.500 65.865,107.312 65.592,107.081 65.352 C 106.851 65.113,106.519 64.764,106.343 64.577 C 106.168 64.390,105.970 64.024,105.905 63.763 C 105.840 63.503,105.646 63.253,105.475 63.208 C 105.303 63.164,105.119 62.951,105.065 62.736 C 105.011 62.521,104.824 62.300,104.650 62.245 C 104.476 62.189,104.333 62.038,104.333 61.909 C 104.333 61.780,104.153 61.556,103.933 61.412 C 103.712 61.267,103.486 60.966,103.429 60.741 C 103.373 60.517,103.255 60.333,103.168 60.333 C 103.080 60.333,102.883 60.090,102.729 59.792 C 102.576 59.494,102.312 59.152,102.142 59.032 C 101.972 58.912,101.833 58.715,101.833 58.593 C 101.833 58.471,101.646 58.249,101.417 58.099 C 101.188 57.949,101.000 57.719,101.000 57.588 C 101.000 57.457,100.887 57.287,100.749 57.209 C 100.322 56.970,99.333 55.286,99.333 54.797 L 99.333 54.333 76.528 54.333 C 63.985 54.333,53.672 54.383,53.611 54.444 M165.444 54.444 C 165.383 54.506,165.333 54.693,165.333 54.861 C 165.333 55.140,165.162 55.167,163.345 55.167 C 161.502 55.167,161.348 55.191,161.250 55.500 C 161.162 55.779,160.998 55.833,160.252 55.833 C 159.146 55.833,158.833 55.947,158.833 56.351 C 158.833 56.620,158.705 56.667,157.958 56.669 C 156.776 56.672,156.333 56.810,156.333 57.177 C 156.333 57.415,156.181 57.492,155.625 57.532 C 155.082 57.571,154.879 57.669,154.755 57.952 C 154.666 58.154,154.441 58.342,154.255 58.368 C 154.053 58.397,153.896 58.564,153.865 58.783 C 153.822 59.083,153.687 59.158,153.115 59.199 C 152.536 59.241,152.408 59.314,152.363 59.625 C 152.325 59.896,152.198 60.000,151.905 60.000 C 151.584 60.000,151.500 60.087,151.500 60.417 C 151.500 60.750,151.417 60.833,151.083 60.833 C 150.753 60.833,150.667 60.917,150.667 61.238 C 150.667 61.532,150.563 61.658,150.292 61.697 C 149.972 61.742,149.909 61.866,149.866 62.542 C 149.820 63.256,149.775 63.333,149.408 63.333 C 149.084 63.333,149.000 63.419,149.000 63.750 C 149.000 64.048,148.910 64.167,148.684 64.167 C 148.280 64.167,148.167 64.479,148.167 65.597 C 148.167 66.449,148.143 66.500,147.750 66.500 C 147.343 66.500,147.333 66.528,147.333 67.750 C 147.333 68.865,147.299 69.000,147.018 69.000 C 146.529 69.000,146.500 69.256,146.500 73.601 L 146.500 77.674 146.900 77.856 C 147.265 78.022,147.305 78.154,147.360 79.375 C 147.413 80.538,147.470 80.745,147.794 80.960 C 148.055 81.133,148.167 81.373,148.167 81.758 C 148.167 82.284,148.514 82.833,148.845 82.833 C 148.930 82.833,149.000 83.021,149.000 83.250 C 149.000 83.583,149.083 83.667,149.417 83.667 C 149.750 83.667,149.833 83.750,149.833 84.083 C 149.833 84.414,149.917 84.500,150.240 84.500 C 150.600 84.500,150.653 84.582,150.699 85.208 C 150.741 85.797,150.813 85.926,151.125 85.970 C 151.331 85.999,151.500 86.088,151.500 86.166 C 151.500 86.473,152.047 86.833,152.512 86.833 C 152.921 86.833,153.000 86.900,153.000 87.250 C 153.000 87.580,153.084 87.667,153.405 87.667 C 153.698 87.667,153.825 87.770,153.863 88.042 C 153.909 88.362,154.033 88.424,154.708 88.467 C 155.423 88.513,155.500 88.558,155.500 88.926 C 155.500 89.303,155.561 89.333,156.322 89.333 C 157.047 89.333,157.150 89.377,157.197 89.708 C 157.246 90.052,157.350 90.087,158.458 90.132 C 159.505 90.175,159.667 90.222,159.667 90.489 C 159.667 90.942,159.971 91.000,162.347 91.000 C 164.348 91.000,164.500 91.022,164.500 91.316 C 164.500 91.838,164.327 91.833,185.597 91.833 L 206.167 91.833 206.167 92.250 C 206.167 92.580,206.251 92.667,206.572 92.667 C 206.865 92.667,206.992 92.770,207.030 93.042 C 207.064 93.283,207.217 93.436,207.458 93.470 C 207.817 93.521,207.833 93.592,207.833 95.083 C 207.833 96.574,207.817 96.646,207.458 96.697 C 207.217 96.731,207.064 96.884,207.030 97.125 C 206.992 97.396,206.865 97.500,206.572 97.500 C 206.251 97.500,206.167 97.587,206.167 97.916 L 206.167 98.332 181.292 98.374 L 156.417 98.417 156.363 98.792 C 156.330 99.024,156.195 99.167,156.006 99.167 C 155.647 99.167,155.500 99.484,155.500 100.264 C 155.500 100.760,155.447 100.833,155.083 100.833 C 154.750 100.833,154.667 100.917,154.667 101.250 C 154.667 101.583,154.583 101.667,154.250 101.667 C 153.917 101.667,153.833 101.750,153.833 102.083 C 153.833 102.381,153.743 102.500,153.518 102.500 C 153.159 102.500,153.000 102.810,153.000 103.514 C 153.000 103.887,152.924 104.000,152.670 104.000 C 152.457 104.000,152.303 104.148,152.235 104.417 C 152.170 104.677,152.013 104.833,151.815 104.833 C 151.590 104.833,151.500 104.952,151.500 105.250 C 151.500 105.583,151.417 105.667,151.083 105.667 C 150.753 105.667,150.667 105.751,150.667 106.072 C 150.667 106.365,150.563 106.492,150.292 106.530 C 149.972 106.576,149.909 106.699,149.866 107.375 C 149.820 108.090,149.775 108.167,149.408 108.167 C 149.084 108.167,149.000 108.252,149.000 108.583 C 149.000 108.917,148.917 109.000,148.583 109.000 C 148.250 109.000,148.167 109.083,148.167 109.417 C 148.167 109.750,148.083 109.833,147.750 109.833 C 147.368 109.833,147.333 109.895,147.333 110.572 C 147.333 111.211,147.283 111.317,146.958 111.363 C 146.721 111.397,146.564 111.551,146.531 111.781 C 146.499 112.009,146.342 112.166,146.115 112.198 C 145.888 112.230,145.730 112.388,145.698 112.615 C 145.666 112.842,145.509 112.999,145.281 113.031 C 145.015 113.069,144.902 113.218,144.861 113.583 C 144.830 113.858,144.698 114.143,144.569 114.217 C 144.104 114.480,144.400 115.833,144.923 115.833 C 145.057 115.833,145.167 115.759,145.167 115.667 C 145.167 115.557,156.041 115.487,177.208 115.459 L 209.250 115.417 209.303 115.047 C 209.353 114.691,209.432 114.675,211.386 114.630 C 213.337 114.585,213.419 114.569,213.469 114.215 C 213.517 113.880,213.628 113.843,214.719 113.799 C 215.817 113.754,215.921 113.719,215.970 113.375 C 216.016 113.051,216.123 113.000,216.762 113.000 C 217.438 113.000,217.500 112.965,217.500 112.583 C 217.500 112.194,217.556 112.167,218.333 112.167 C 219.106 112.167,219.167 112.137,219.167 111.759 C 219.167 111.391,219.244 111.347,219.958 111.301 C 220.634 111.257,220.758 111.195,220.803 110.875 C 220.842 110.604,220.968 110.500,221.262 110.500 C 221.551 110.500,221.667 110.408,221.667 110.178 C 221.667 109.971,221.801 109.837,222.042 109.803 C 222.279 109.770,222.436 109.616,222.469 109.385 C 222.501 109.158,222.658 109.001,222.885 108.969 C 223.116 108.936,223.270 108.779,223.303 108.542 C 223.337 108.301,223.471 108.167,223.678 108.167 C 223.925 108.167,224.000 108.050,224.000 107.667 C 224.000 107.339,224.084 107.167,224.244 107.167 C 224.551 107.167,224.833 106.653,224.833 106.094 C 224.833 105.749,224.914 105.667,225.250 105.667 C 225.638 105.667,225.667 105.610,225.667 104.845 C 225.667 104.120,225.711 104.017,226.042 103.970 C 226.386 103.921,226.421 103.817,226.466 102.708 C 226.509 101.641,226.552 101.500,226.837 101.500 C 227.324 101.500,227.347 101.198,227.297 95.500 L 227.250 90.250 226.875 90.197 C 226.527 90.147,226.500 90.059,226.500 88.992 C 226.500 87.902,226.477 87.834,226.083 87.735 C 225.718 87.643,225.667 87.540,225.667 86.899 C 225.667 86.229,225.631 86.167,225.250 86.167 C 224.917 86.167,224.833 86.083,224.833 85.750 C 224.833 85.417,224.750 85.333,224.417 85.333 C 224.083 85.333,224.000 85.250,224.000 84.917 C 224.000 84.616,223.910 84.500,223.678 84.500 C 223.471 84.500,223.337 84.366,223.303 84.125 C 223.269 83.884,223.116 83.731,222.875 83.697 C 222.604 83.658,222.500 83.532,222.500 83.238 C 222.500 82.917,222.413 82.833,222.083 82.833 C 221.750 82.833,221.667 82.750,221.667 82.417 C 221.667 82.087,221.583 82.000,221.262 82.000 C 220.968 82.000,220.842 81.896,220.803 81.625 C 220.758 81.306,220.634 81.242,219.969 81.200 C 219.310 81.157,219.179 81.092,219.135 80.783 C 219.091 80.473,218.961 80.409,218.292 80.366 C 217.657 80.325,217.500 80.255,217.500 80.013 C 217.500 79.692,216.830 79.505,215.665 79.502 C 215.262 79.501,215.015 79.396,214.872 79.167 C 214.681 78.860,214.483 78.833,212.427 78.833 C 210.234 78.833,210.189 78.826,210.137 78.458 L 210.083 78.083 189.303 78.041 L 168.523 77.999 168.470 77.624 C 168.426 77.314,168.297 77.241,167.719 77.199 C 167.146 77.158,167.011 77.083,166.969 76.783 C 166.936 76.551,166.779 76.397,166.542 76.363 C 165.920 76.275,165.961 73.000,166.583 73.000 C 166.915 73.000,167.000 72.916,167.000 72.591 C 167.000 72.202,167.055 72.179,168.125 72.133 C 169.147 72.088,169.255 72.049,169.303 71.708 L 169.357 71.333 187.845 71.333 L 206.333 71.333 206.333 70.734 C 206.333 70.289,206.413 70.115,206.646 70.054 C 206.819 70.009,207.042 69.791,207.143 69.569 C 207.244 69.348,207.404 69.167,207.500 69.167 C 207.596 69.167,208.066 68.794,208.545 68.339 C 209.715 67.229,209.900 67.072,210.447 66.722 C 210.705 66.557,211.015 66.290,211.134 66.128 C 211.254 65.966,211.452 65.833,211.574 65.833 C 211.695 65.833,211.918 65.646,212.068 65.417 C 212.218 65.188,212.452 65.000,212.587 65.000 C 212.723 65.000,212.833 64.887,212.833 64.750 C 212.833 64.612,212.906 64.500,212.994 64.500 C 213.083 64.500,213.412 64.256,213.725 63.958 C 214.494 63.226,215.180 62.666,215.917 62.167 C 216.255 61.938,216.688 61.581,216.879 61.375 C 217.070 61.169,217.314 61.000,217.420 61.000 C 217.526 61.000,217.699 60.813,217.803 60.583 C 217.907 60.354,218.103 60.167,218.238 60.167 C 218.373 60.167,218.543 60.066,218.617 59.943 C 218.864 59.528,221.146 57.667,221.408 57.667 C 221.550 57.667,221.667 57.556,221.667 57.421 C 221.667 57.286,221.892 57.059,222.167 56.917 C 222.442 56.774,222.667 56.583,222.667 56.492 C 222.667 56.401,222.838 56.248,223.048 56.152 C 223.259 56.057,223.502 55.814,223.590 55.614 C 223.678 55.414,223.919 55.226,224.125 55.197 C 224.396 55.158,224.500 55.032,224.500 54.738 L 224.500 54.333 195.028 54.333 C 178.818 54.333,165.506 54.383,165.444 54.444 M233.910 54.542 C 233.867 54.656,233.850 68.400,233.874 85.083 L 233.917 115.417 263.708 115.459 L 293.500 115.501 293.500 115.095 C 293.500 114.802,293.603 114.675,293.875 114.637 C 294.116 114.602,294.269 114.449,294.303 114.208 C 294.333 114.002,294.466 113.833,294.599 113.833 C 294.873 113.833,295.167 113.181,295.167 112.572 C 295.167 112.251,295.253 112.167,295.583 112.167 C 295.917 112.167,296.000 112.083,296.000 111.750 C 296.000 111.444,296.089 111.333,296.333 111.333 C 296.578 111.333,296.667 111.222,296.667 110.917 C 296.667 110.583,296.750 110.500,297.083 110.500 C 297.466 110.500,297.500 110.439,297.500 109.750 C 297.500 109.061,297.534 109.000,297.917 109.000 C 298.250 109.000,298.333 108.917,298.333 108.583 C 298.333 108.250,298.417 108.167,298.750 108.167 C 299.080 108.167,299.167 108.083,299.167 107.762 C 299.167 107.468,299.270 107.342,299.542 107.303 C 299.768 107.271,299.936 107.116,299.965 106.912 C 299.992 106.725,300.179 106.500,300.382 106.412 C 300.664 106.288,300.762 106.084,300.801 105.542 C 300.847 104.916,300.900 104.833,301.260 104.833 C 301.583 104.833,301.667 104.747,301.667 104.417 C 301.667 104.083,301.750 104.000,302.083 104.000 C 302.417 104.000,302.500 103.917,302.500 103.583 C 302.500 103.279,302.589 103.167,302.830 103.167 C 303.054 103.167,303.193 103.020,303.262 102.708 C 303.466 101.793,303.527 101.667,303.761 101.667 C 303.905 101.667,304.000 101.501,304.000 101.250 C 304.000 100.917,304.083 100.833,304.417 100.833 C 304.824 100.833,304.833 100.806,304.833 99.583 L 304.833 98.333 279.583 98.333 L 254.333 98.333 254.333 95.083 L 254.333 91.833 271.481 91.833 C 288.488 91.833,288.629 91.836,288.715 92.167 C 288.833 92.617,289.751 92.631,289.990 92.186 C 290.097 91.986,290.424 91.833,290.897 91.762 C 291.680 91.644,291.833 91.463,291.833 90.653 C 291.833 90.245,291.901 90.167,292.250 90.167 C 292.583 90.167,292.667 90.083,292.667 89.750 C 292.667 89.417,292.750 89.333,293.083 89.333 C 293.417 89.333,293.500 89.250,293.500 88.917 C 293.500 88.619,293.590 88.500,293.816 88.500 C 294.186 88.500,294.333 88.188,294.333 87.403 C 294.333 86.906,294.387 86.833,294.750 86.833 C 295.051 86.833,295.167 86.744,295.167 86.512 C 295.167 86.305,295.301 86.171,295.542 86.137 C 295.776 86.103,295.936 85.949,295.968 85.725 C 295.996 85.528,296.165 85.329,296.343 85.283 C 296.526 85.235,296.667 85.055,296.667 84.867 C 296.667 84.653,296.814 84.499,297.083 84.432 C 297.450 84.339,297.500 84.238,297.500 83.580 C 297.500 82.895,297.534 82.833,297.917 82.833 C 298.250 82.833,298.333 82.750,298.333 82.417 C 298.333 82.083,298.417 82.000,298.750 82.000 C 299.083 82.000,299.167 81.917,299.167 81.583 C 299.167 81.250,299.250 81.167,299.583 81.167 C 299.935 81.167,300.000 81.089,300.000 80.667 C 300.000 80.344,300.085 80.167,300.239 80.167 C 300.370 80.167,300.525 80.017,300.583 79.833 C 300.649 79.626,300.836 79.500,301.075 79.500 C 301.871 79.500,301.904 76.755,301.112 76.451 C 300.698 76.292,300.167 76.518,300.167 76.853 C 300.167 77.159,299.583 77.167,277.250 77.167 L 254.333 77.167 254.333 74.250 L 254.333 71.333 269.333 71.333 L 284.333 71.333 284.333 70.920 C 284.333 70.454,286.348 68.333,286.790 68.333 C 286.884 68.333,287.085 68.146,287.235 67.917 C 287.385 67.688,287.615 67.500,287.746 67.500 C 287.876 67.500,288.043 67.402,288.117 67.283 C 288.190 67.164,288.512 66.887,288.833 66.667 C 289.154 66.447,289.477 66.169,289.550 66.050 C 289.623 65.931,289.830 65.833,290.008 65.833 C 290.187 65.833,290.333 65.723,290.333 65.589 C 290.333 65.455,290.502 65.256,290.708 65.147 C 290.915 65.038,291.242 64.792,291.435 64.600 C 292.092 63.946,292.904 63.333,293.113 63.333 C 293.228 63.333,293.402 63.183,293.500 63.000 C 293.598 62.817,293.828 62.667,294.010 62.667 C 294.210 62.667,294.404 62.502,294.500 62.250 C 294.587 62.021,294.743 61.833,294.846 61.833 C 294.949 61.833,295.244 61.627,295.503 61.375 C 296.313 60.584,296.568 60.385,297.125 60.101 C 297.423 59.949,297.667 59.753,297.667 59.666 C 297.667 59.578,297.851 59.460,298.077 59.403 C 298.303 59.347,298.533 59.158,298.589 58.983 C 298.644 58.809,298.756 58.667,298.839 58.667 C 298.921 58.667,299.210 58.460,299.480 58.208 C 300.630 57.136,301.019 56.833,301.247 56.833 C 301.380 56.833,301.568 56.684,301.666 56.502 C 301.763 56.320,302.012 56.128,302.219 56.076 C 302.426 56.024,302.668 55.817,302.756 55.616 C 302.844 55.415,303.085 55.226,303.292 55.197 C 303.563 55.158,303.667 55.032,303.667 54.738 L 303.667 54.333 268.828 54.333 C 241.111 54.333,233.973 54.376,233.910 54.542 M322.738 54.896 C 322.727 55.439,321.649 57.333,321.351 57.333 C 321.279 57.333,321.135 57.521,321.030 57.750 C 320.926 57.979,320.726 58.167,320.587 58.167 C 320.447 58.167,320.333 58.308,320.333 58.481 C 320.333 58.654,320.146 58.918,319.917 59.068 C 319.688 59.218,319.500 59.449,319.500 59.581 C 319.500 59.714,319.275 60.078,319.000 60.391 C 318.725 60.704,318.500 61.045,318.500 61.147 C 318.500 61.249,318.386 61.333,318.246 61.333 C 318.106 61.333,317.925 61.502,317.844 61.708 C 317.763 61.915,317.540 62.214,317.349 62.373 C 317.157 62.533,317.000 62.769,317.000 62.897 C 317.000 63.026,316.891 63.173,316.759 63.224 C 316.626 63.275,316.391 63.564,316.236 63.866 C 316.081 64.169,315.848 64.479,315.718 64.555 C 315.588 64.631,315.413 64.875,315.328 65.097 C 315.244 65.319,315.069 65.500,314.939 65.500 C 314.809 65.500,314.657 65.683,314.601 65.906 C 314.545 66.129,314.349 66.359,314.166 66.417 C 313.983 66.475,313.833 66.651,313.833 66.807 C 313.833 67.063,313.497 67.529,312.535 68.606 C 312.360 68.802,312.168 69.090,312.108 69.247 C 312.047 69.404,311.849 69.571,311.666 69.619 C 311.483 69.666,311.333 69.832,311.333 69.986 C 311.333 70.140,311.257 70.343,311.163 70.437 C 311.069 70.531,310.961 70.771,310.922 70.971 L 310.852 71.333 338.093 71.333 L 365.333 71.333 365.333 71.750 C 365.333 72.157,365.362 72.167,366.572 72.167 C 367.729 72.167,367.814 72.191,367.863 72.542 C 367.908 72.852,368.036 72.925,368.615 72.967 C 369.187 73.009,369.322 73.084,369.365 73.384 C 369.397 73.612,369.554 73.770,369.781 73.802 C 370.009 73.834,370.166 73.991,370.198 74.219 C 370.231 74.446,370.388 74.603,370.616 74.635 C 370.925 74.679,370.990 74.810,371.033 75.469 C 371.076 76.134,371.139 76.258,371.458 76.303 C 372.075 76.391,372.034 78.833,371.417 78.833 C 371.035 78.833,371.000 78.895,371.000 79.572 C 371.000 80.211,370.949 80.317,370.625 80.363 C 370.391 80.397,370.231 80.551,370.199 80.772 C 370.160 81.045,369.993 81.152,369.474 81.235 C 369.012 81.309,368.774 81.441,368.718 81.655 C 368.660 81.877,368.421 81.999,367.883 82.080 C 367.336 82.162,367.106 82.281,367.045 82.513 C 366.971 82.796,366.801 82.834,365.606 82.836 C 364.178 82.839,363.959 82.903,363.785 83.375 C 363.683 83.650,362.186 83.668,336.380 83.708 L 309.083 83.750 309.041 99.490 C 309.007 111.971,309.042 115.257,309.207 115.362 C 309.323 115.435,313.898 115.496,319.375 115.497 L 329.333 115.500 329.333 107.750 L 329.333 100.000 343.250 100.000 L 357.167 100.000 357.167 100.417 C 357.167 100.750,357.250 100.833,357.583 100.833 C 357.917 100.833,358.000 100.917,358.000 101.250 C 358.000 101.583,358.083 101.667,358.417 101.667 C 358.799 101.667,358.833 101.728,358.833 102.417 C 358.833 103.106,358.867 103.167,359.250 103.167 C 359.583 103.167,359.667 103.250,359.667 103.583 C 359.667 103.881,359.757 104.000,359.982 104.000 C 360.179 104.000,360.336 104.156,360.402 104.417 C 360.468 104.679,360.624 104.833,360.825 104.833 C 361.028 104.833,361.163 104.969,361.197 105.208 C 361.231 105.449,361.384 105.602,361.625 105.637 C 361.896 105.675,362.000 105.802,362.000 106.095 C 362.000 106.416,362.087 106.500,362.417 106.500 C 362.737 106.500,362.834 106.587,362.836 106.875 C 362.840 107.580,363.033 108.000,363.353 108.000 C 363.576 108.000,363.667 108.120,363.667 108.413 C 363.667 108.713,363.779 108.855,364.074 108.929 C 364.322 108.991,364.501 109.172,364.532 109.391 C 364.564 109.616,364.723 109.770,364.958 109.803 C 365.199 109.837,365.333 109.971,365.333 110.178 C 365.333 110.410,365.449 110.500,365.750 110.500 C 366.083 110.500,366.167 110.583,366.167 110.917 C 366.167 111.250,366.250 111.333,366.583 111.333 C 366.917 111.333,367.000 111.417,367.000 111.750 C 367.000 112.083,367.083 112.167,367.417 112.167 C 367.806 112.167,367.833 112.222,367.833 113.000 C 367.833 113.720,367.878 113.833,368.163 113.833 C 368.377 113.833,368.531 113.981,368.598 114.250 C 368.662 114.504,368.822 114.667,369.006 114.667 C 369.195 114.667,369.330 114.809,369.363 115.042 L 369.417 115.417 382.458 115.459 L 395.500 115.502 395.500 114.251 C 395.500 113.037,395.488 113.000,395.095 113.000 C 394.802 113.000,394.675 112.896,394.637 112.625 C 394.603 112.388,394.449 112.231,394.219 112.198 C 393.991 112.166,393.834 112.009,393.802 111.781 C 393.769 111.551,393.612 111.397,393.375 111.363 C 393.134 111.329,393.000 111.195,393.000 110.988 C 393.000 110.756,392.884 110.667,392.583 110.667 C 392.250 110.667,392.167 110.583,392.167 110.250 C 392.167 109.949,392.077 109.833,391.845 109.833 C 391.638 109.833,391.504 109.699,391.470 109.458 C 391.436 109.217,391.283 109.064,391.042 109.030 C 390.770 108.992,390.667 108.865,390.667 108.572 C 390.667 108.251,390.580 108.167,390.250 108.167 C 389.917 108.167,389.833 108.083,389.833 107.750 C 389.833 107.417,389.750 107.333,389.417 107.333 C 389.083 107.333,389.000 107.250,389.000 106.917 C 389.000 106.583,388.917 106.500,388.583 106.500 C 388.250 106.500,388.167 106.417,388.167 106.083 C 388.167 105.750,388.083 105.667,387.750 105.667 C 387.417 105.667,387.333 105.583,387.333 105.250 C 387.333 104.917,387.250 104.833,386.917 104.833 C 386.583 104.833,386.500 104.750,386.500 104.417 C 386.500 104.083,386.417 104.000,386.083 104.000 C 385.748 104.000,385.667 103.917,385.667 103.575 C 385.667 103.342,385.492 102.986,385.279 102.784 C 385.066 102.582,384.841 102.278,384.778 102.109 C 384.716 101.940,384.515 101.763,384.332 101.715 C 384.118 101.659,384.000 101.487,384.000 101.231 C 384.000 100.918,383.911 100.833,383.583 100.833 C 383.276 100.833,383.167 100.745,383.167 100.496 C 383.167 100.294,383.008 100.098,382.773 100.009 C 382.556 99.926,382.338 99.703,382.288 99.513 C 382.239 99.322,382.090 99.167,381.959 99.167 C 381.828 99.167,381.637 98.984,381.535 98.761 C 381.404 98.473,381.192 98.341,380.800 98.303 C 380.420 98.266,380.199 98.134,380.085 97.875 C 379.985 97.645,379.775 97.500,379.544 97.500 C 379.253 97.500,379.167 97.405,379.167 97.083 C 379.167 96.750,379.083 96.667,378.750 96.667 C 378.417 96.667,378.333 96.583,378.333 96.250 C 378.333 95.917,378.417 95.833,378.750 95.833 C 379.083 95.833,379.167 95.750,379.167 95.417 C 379.167 95.031,379.225 95.000,379.960 95.000 C 380.564 95.000,380.801 94.923,380.955 94.677 C 381.084 94.471,381.384 94.335,381.787 94.302 C 382.294 94.260,382.427 94.177,382.470 93.875 C 382.516 93.551,382.623 93.500,383.262 93.500 C 383.938 93.500,384.000 93.465,384.000 93.083 C 384.000 92.750,384.083 92.667,384.417 92.667 C 384.745 92.667,384.833 92.582,384.833 92.269 C 384.833 91.926,384.935 91.856,385.575 91.760 C 386.060 91.687,386.348 91.550,386.407 91.365 C 386.456 91.208,386.666 91.006,386.873 90.915 C 387.165 90.787,387.262 90.590,387.301 90.042 C 387.347 89.416,387.400 89.333,387.760 89.333 C 388.083 89.333,388.167 89.247,388.167 88.917 C 388.167 88.583,388.250 88.500,388.583 88.500 C 388.913 88.500,389.000 88.416,389.000 88.095 C 389.000 87.802,389.104 87.675,389.375 87.637 C 389.683 87.593,389.759 87.463,389.799 86.911 C 389.837 86.406,389.940 86.199,390.216 86.078 C 390.497 85.955,390.595 85.750,390.635 85.208 C 390.669 84.735,390.764 84.500,390.920 84.500 C 391.289 84.500,391.500 83.934,391.500 82.947 C 391.500 82.179,391.551 82.025,391.833 81.952 C 392.158 81.867,392.167 81.724,392.167 76.434 C 392.167 71.183,392.156 70.996,391.833 70.795 C 391.599 70.649,391.500 70.406,391.500 69.981 C 391.500 68.953,391.305 68.295,390.975 68.208 C 390.754 68.151,390.667 67.973,390.667 67.578 C 390.667 66.823,390.518 66.500,390.170 66.500 C 389.955 66.500,389.847 66.317,389.767 65.817 C 389.689 65.331,389.562 65.108,389.329 65.047 C 389.118 64.992,389.000 64.819,389.000 64.567 C 389.000 64.286,388.881 64.143,388.583 64.068 C 388.323 64.003,388.167 63.846,388.167 63.649 C 388.167 63.423,388.048 63.333,387.750 63.333 C 387.417 63.333,387.333 63.250,387.333 62.917 C 387.333 62.583,387.250 62.500,386.917 62.500 C 386.583 62.500,386.500 62.417,386.500 62.083 C 386.500 61.750,386.417 61.667,386.083 61.667 C 385.750 61.667,385.667 61.583,385.667 61.250 C 385.667 60.917,385.583 60.833,385.250 60.833 C 384.917 60.833,384.833 60.750,384.833 60.417 C 384.833 60.035,384.771 60.000,384.095 60.000 C 383.456 60.000,383.349 59.949,383.303 59.625 C 383.270 59.393,383.116 59.231,382.898 59.200 C 382.704 59.172,382.462 58.966,382.360 58.741 C 382.207 58.407,382.053 58.333,381.504 58.333 C 380.957 58.333,380.833 58.275,380.833 58.018 C 380.833 57.608,380.521 57.500,379.331 57.500 C 378.447 57.500,378.352 57.465,378.303 57.125 C 378.258 56.806,378.134 56.742,377.476 56.700 C 376.897 56.662,376.681 56.574,376.623 56.350 C 376.535 56.014,375.772 55.838,374.386 55.835 C 373.670 55.834,373.504 55.776,373.417 55.500 C 373.317 55.187,373.164 55.167,370.917 55.167 C 368.561 55.167,368.522 55.161,368.470 54.792 L 368.417 54.417 345.583 54.375 L 322.750 54.333 322.738 54.896 M302.167 59.357 C 302.167 59.461,302.035 59.645,301.875 59.765 C 301.610 59.964,301.617 59.975,301.958 59.889 C 302.273 59.810,302.532 59.167,302.250 59.167 C 302.204 59.167,302.167 59.252,302.167 59.357 M220.451 62.838 C 220.233 63.093,220.221 63.167,220.400 63.167 C 220.527 63.167,220.678 63.043,220.736 62.893 C 220.891 62.489,220.770 62.466,220.451 62.838 M217.776 65.971 C 217.624 66.139,217.500 66.324,217.500 66.383 C 217.500 66.536,218.060 66.308,218.206 66.095 C 218.536 65.613,218.190 65.514,217.776 65.971 M112.825 70.621 C 112.779 71.008,112.806 71.261,112.883 71.184 C 112.961 71.106,112.998 70.789,112.966 70.480 C 112.910 69.931,112.906 69.934,112.825 70.621 M309.080 71.000 C 309.365 71.520,309.706 71.808,309.932 71.721 C 310.257 71.596,310.227 71.333,309.888 71.333 C 309.735 71.333,309.460 71.202,309.276 71.042 C 309.035 70.831,308.981 70.819,309.080 71.000 M119.000 75.803 C 118.862 75.866,118.581 76.028,118.375 76.165 L 118.000 76.414 118.000 95.958 L 118.000 115.503 128.125 115.460 L 138.250 115.417 138.292 95.875 L 138.335 76.333 137.917 76.333 C 137.688 76.333,137.350 76.183,137.167 76.000 C 136.827 75.661,119.724 75.475,119.000 75.803 " stroke="none" fill="#040404" fill-rule="evenodd"></path><path id="path3" d="M99.500 54.728 C 99.500 54.944,99.650 55.312,99.833 55.545 C 100.017 55.779,100.167 56.042,100.167 56.131 C 100.167 56.220,100.289 56.394,100.439 56.519 C 100.589 56.643,100.881 57.009,101.089 57.331 C 101.296 57.653,101.736 58.207,102.066 58.563 C 102.396 58.918,102.667 59.275,102.667 59.355 C 102.667 59.436,102.854 59.665,103.083 59.864 C 103.313 60.064,103.500 60.297,103.500 60.383 C 103.500 60.469,103.730 60.812,104.010 61.145 C 104.291 61.478,104.685 61.957,104.885 62.211 C 105.086 62.464,105.419 62.834,105.625 63.032 C 105.831 63.231,106.000 63.454,106.000 63.529 C 106.000 63.689,106.869 64.853,107.907 66.083 C 108.631 66.942,109.333 67.875,109.335 67.981 C 109.336 68.037,109.683 68.458,110.105 68.916 C 110.527 69.374,110.937 69.918,111.016 70.125 C 111.120 70.400,111.293 70.500,111.663 70.500 C 112.093 70.500,112.167 70.563,112.167 70.929 C 112.167 71.657,112.739 71.382,112.802 70.624 C 112.857 69.959,112.834 69.944,111.881 69.995 C 111.436 70.020,111.328 69.953,111.240 69.602 C 111.181 69.369,110.991 69.133,110.817 69.078 C 110.643 69.023,110.500 68.918,110.500 68.845 C 110.500 68.724,110.189 68.302,109.078 66.917 C 108.858 66.642,108.302 65.929,107.843 65.333 C 107.384 64.737,106.861 64.063,106.680 63.833 C 106.174 63.190,104.738 61.331,104.130 60.530 C 103.829 60.134,103.433 59.635,103.250 59.421 C 102.818 58.917,102.462 58.457,101.637 57.333 C 101.267 56.829,100.908 56.379,100.839 56.333 C 100.770 56.288,100.588 56.006,100.436 55.708 C 100.283 55.410,100.085 55.167,99.996 55.167 C 99.906 55.167,99.833 54.979,99.833 54.750 C 99.833 54.521,99.758 54.333,99.667 54.333 C 99.575 54.333,99.500 54.511,99.500 54.728 M224.803 54.792 C 224.765 55.122,224.644 55.265,224.371 55.304 C 224.162 55.333,223.874 55.537,223.731 55.756 C 223.588 55.975,223.327 56.199,223.152 56.255 C 222.977 56.310,222.833 56.466,222.833 56.600 C 222.833 56.734,222.702 56.890,222.542 56.946 C 222.263 57.044,222.125 57.153,221.167 58.033 C 220.938 58.244,220.413 58.670,220.000 58.981 C 219.588 59.292,219.063 59.725,218.833 59.943 C 217.678 61.043,216.720 61.844,216.458 61.928 C 216.298 61.980,216.167 62.081,216.167 62.153 C 216.167 62.225,215.698 62.651,215.126 63.100 C 214.554 63.549,213.968 64.029,213.824 64.167 C 213.680 64.304,213.163 64.754,212.674 65.167 C 212.186 65.579,211.571 66.104,211.307 66.333 C 211.044 66.563,210.661 66.879,210.456 67.036 C 209.678 67.632,207.414 69.560,206.967 70.007 C 206.458 70.516,206.325 71.333,206.750 71.333 C 206.887 71.333,207.000 71.188,207.000 71.010 C 207.000 70.584,207.558 70.006,209.667 68.252 C 210.629 67.450,211.477 66.691,211.550 66.564 C 211.623 66.437,211.771 66.333,211.877 66.333 C 211.984 66.333,212.224 66.183,212.411 66.000 C 212.597 65.816,213.313 65.197,214.001 64.625 C 214.689 64.052,215.408 63.433,215.599 63.250 C 215.790 63.067,216.187 62.729,216.481 62.500 C 216.775 62.271,217.143 61.964,217.299 61.818 C 217.455 61.672,218.033 61.195,218.583 60.758 C 219.644 59.916,221.458 58.334,222.081 57.708 C 222.287 57.502,222.536 57.333,222.635 57.333 C 222.734 57.333,222.912 57.201,223.032 57.039 C 223.287 56.695,224.043 56.333,224.508 56.333 C 224.687 56.333,224.833 56.221,224.833 56.083 C 224.833 55.928,224.991 55.833,225.250 55.833 C 225.586 55.833,225.667 55.751,225.667 55.406 C 225.667 54.445,224.905 53.904,224.803 54.792 M304.000 54.727 C 304.000 55.015,303.884 55.179,303.625 55.258 C 303.419 55.320,303.051 55.569,302.807 55.811 C 302.563 56.052,302.159 56.400,301.908 56.583 C 301.657 56.767,301.280 57.078,301.069 57.275 C 300.858 57.471,300.617 57.659,300.533 57.691 C 300.281 57.788,299.135 58.723,298.775 59.125 C 298.591 59.331,298.344 59.500,298.226 59.500 C 298.108 59.500,297.931 59.650,297.833 59.833 C 297.735 60.017,297.574 60.167,297.474 60.167 C 297.298 60.167,296.512 60.782,295.653 61.594 C 295.416 61.817,295.162 62.000,295.089 62.000 C 295.015 62.000,294.784 62.169,294.575 62.375 C 294.192 62.754,294.084 62.840,292.583 63.964 C 291.461 64.804,291.016 65.180,290.613 65.625 C 290.426 65.831,290.202 66.000,290.114 66.000 C 290.027 66.000,289.786 66.169,289.581 66.375 C 289.375 66.581,288.841 67.012,288.395 67.333 C 287.948 67.654,287.494 67.992,287.385 68.083 C 287.276 68.175,286.917 68.475,286.586 68.750 C 284.886 70.163,284.667 70.405,284.667 70.868 C 284.667 71.124,284.742 71.333,284.833 71.333 C 284.925 71.333,285.000 71.191,285.000 71.017 C 285.000 70.747,286.050 69.500,286.276 69.500 C 286.347 69.500,287.503 68.627,287.931 68.250 C 288.258 67.962,289.178 67.231,291.417 65.482 C 292.608 64.551,293.733 63.647,293.917 63.472 C 294.100 63.297,294.813 62.735,295.500 62.222 C 296.188 61.710,296.900 61.149,297.083 60.976 C 297.267 60.802,297.904 60.286,298.500 59.827 C 300.425 58.345,301.524 57.451,301.990 56.985 C 302.478 56.497,304.000 56.115,304.000 56.481 C 304.000 56.583,304.191 56.667,304.424 56.667 C 305.044 56.667,304.997 54.452,304.375 54.363 C 304.072 54.320,304.000 54.390,304.000 54.727 M322.167 54.717 C 322.167 54.927,322.083 55.184,321.981 55.286 C 321.878 55.388,321.710 55.621,321.606 55.803 C 321.502 55.985,321.024 56.648,320.544 57.275 C 320.065 57.903,319.540 58.590,319.378 58.802 C 319.216 59.014,318.971 59.317,318.833 59.474 C 318.696 59.632,318.321 60.120,318.000 60.560 C 317.679 60.999,317.229 61.575,317.000 61.838 C 316.771 62.102,316.453 62.490,316.295 62.701 C 315.788 63.372,314.594 64.910,314.419 65.115 C 314.326 65.224,314.063 65.590,313.833 65.928 C 313.604 66.265,313.265 66.701,313.081 66.896 C 312.896 67.091,312.418 67.681,312.019 68.208 C 311.619 68.735,311.234 69.167,311.163 69.167 C 311.091 69.167,310.954 69.392,310.858 69.667 C 310.728 70.041,310.580 70.167,310.270 70.167 C 309.968 70.167,309.842 70.268,309.803 70.542 C 309.765 70.811,309.656 70.901,309.417 70.862 C 309.106 70.811,309.102 70.826,309.359 71.090 C 309.677 71.417,310.000 71.288,310.000 70.835 C 310.000 70.618,310.140 70.506,310.454 70.469 C 310.704 70.440,310.986 70.267,311.079 70.083 C 311.233 69.783,311.438 69.543,312.512 68.411 C 312.689 68.224,312.833 67.980,312.833 67.868 C 312.833 67.756,313.021 67.501,313.250 67.302 C 313.479 67.103,313.667 66.868,313.667 66.781 C 313.667 66.693,313.835 66.452,314.042 66.244 C 314.248 66.036,314.792 65.369,315.250 64.762 C 315.708 64.155,316.646 62.951,317.333 62.087 C 318.021 61.223,318.771 60.243,319.000 59.911 C 319.411 59.314,320.031 58.573,320.672 57.911 C 320.852 57.724,321.000 57.490,321.000 57.390 C 321.000 57.289,321.117 57.110,321.260 56.991 C 322.160 56.245,322.991 54.333,322.417 54.333 C 322.267 54.333,322.167 54.487,322.167 54.717 M225.500 56.238 C 225.500 56.369,225.369 56.510,225.208 56.552 C 224.989 56.609,225.009 56.633,225.292 56.647 C 225.562 56.661,225.667 56.574,225.667 56.333 C 225.667 56.150,225.629 56.000,225.583 56.000 C 225.537 56.000,225.500 56.107,225.500 56.238 M222.432 59.583 C 222.364 59.852,222.210 60.000,221.997 60.000 C 221.756 60.000,221.667 60.112,221.667 60.417 C 221.667 60.659,221.762 60.833,221.896 60.833 C 222.160 60.833,222.542 60.431,222.406 60.295 C 222.357 60.245,222.507 60.054,222.741 59.870 C 223.244 59.475,223.292 59.167,222.851 59.167 C 222.654 59.167,222.497 59.323,222.432 59.583 M301.637 59.542 C 301.602 59.783,301.449 59.936,301.208 59.970 C 300.842 60.022,300.674 60.548,300.966 60.729 C 301.152 60.844,301.513 60.597,301.569 60.317 C 301.659 59.871,301.869 59.502,301.990 59.577 C 302.056 59.618,302.111 59.543,302.111 59.409 C 302.111 59.016,301.695 59.132,301.637 59.542 M300.480 60.958 C 300.469 61.027,300.473 61.151,300.489 61.235 C 300.505 61.318,300.420 61.453,300.300 61.535 C 300.143 61.644,300.170 61.671,300.400 61.634 C 300.724 61.582,300.972 60.833,300.666 60.833 C 300.575 60.833,300.491 60.890,300.480 60.958 M220.000 62.750 C 220.000 63.083,219.917 63.167,219.583 63.167 C 219.284 63.167,219.167 63.256,219.167 63.486 C 219.167 63.662,219.122 63.943,219.068 64.111 C 219.007 64.297,219.024 64.343,219.109 64.228 C 219.187 64.124,219.395 64.011,219.573 63.977 C 219.774 63.939,219.949 63.710,220.037 63.369 C 220.125 63.030,220.250 62.865,220.365 62.936 C 220.475 63.004,220.505 62.976,220.439 62.869 C 220.377 62.769,220.459 62.610,220.621 62.515 C 220.876 62.367,220.854 62.343,220.458 62.338 C 220.079 62.334,220.000 62.405,220.000 62.750 M298.333 63.583 C 298.333 63.917,298.250 64.000,297.917 64.000 C 297.580 64.000,297.500 64.083,297.500 64.428 C 297.500 64.998,298.222 64.950,298.303 64.375 C 298.336 64.143,298.472 64.000,298.660 64.000 C 298.940 64.000,299.167 63.695,299.167 63.320 C 299.167 63.236,298.979 63.167,298.750 63.167 C 298.417 63.167,298.333 63.250,298.333 63.583 M216.667 66.917 C 216.667 67.198,216.574 67.333,216.383 67.333 C 216.158 67.333,216.142 67.375,216.307 67.540 C 216.455 67.689,216.547 67.695,216.632 67.563 C 216.697 67.461,216.919 67.326,217.125 67.261 C 217.662 67.094,217.629 66.500,217.083 66.500 C 216.750 66.500,216.667 66.583,216.667 66.917 M295.853 66.625 C 295.931 67.117,295.798 67.333,295.417 67.333 C 295.051 67.333,295.000 67.405,295.000 67.923 C 295.000 68.436,295.034 68.485,295.256 68.298 C 295.886 67.769,295.997 67.630,295.908 67.485 C 295.855 67.400,295.948 67.281,296.114 67.219 C 296.750 66.985,296.841 66.500,296.250 66.500 C 296.021 66.500,295.842 66.556,295.853 66.625 M216.122 67.767 C 215.901 67.988,215.995 68.167,216.333 68.167 C 216.517 68.167,216.667 68.087,216.667 67.990 C 216.667 67.893,216.598 67.856,216.514 67.908 C 216.430 67.960,216.335 67.922,216.302 67.824 C 216.270 67.726,216.188 67.701,216.122 67.767 M294.465 68.859 C 294.316 68.953,294.361 68.996,294.615 68.997 C 294.816 68.999,295.019 68.938,295.066 68.861 C 295.177 68.682,294.745 68.681,294.465 68.859 M214.708 69.630 C 214.440 69.673,214.333 69.804,214.333 70.092 C 214.333 70.381,214.217 70.523,213.917 70.598 C 213.649 70.665,213.500 70.820,213.500 71.030 C 213.500 71.514,214.233 71.372,214.303 70.875 C 214.333 70.669,214.452 70.500,214.568 70.500 C 214.750 70.500,215.266 69.672,215.131 69.597 C 215.105 69.582,214.915 69.597,214.708 69.630 M292.667 70.938 C 292.667 71.526,293.362 71.416,293.461 70.813 C 293.492 70.623,293.380 70.542,293.086 70.542 C 292.756 70.542,292.667 70.626,292.667 70.938 " stroke="none" fill="#540404" fill-rule="evenodd"></path><path id="path4" d="M99.350 54.756 C 99.333 55.284,100.281 56.948,100.749 57.209 C 100.887 57.287,101.000 57.457,101.000 57.588 C 101.000 57.719,101.188 57.949,101.417 58.099 C 101.646 58.249,101.833 58.471,101.833 58.593 C 101.833 58.715,101.972 58.912,102.142 59.032 C 102.312 59.152,102.576 59.494,102.729 59.792 C 102.883 60.090,103.080 60.333,103.168 60.333 C 103.255 60.333,103.373 60.517,103.429 60.741 C 103.486 60.966,103.712 61.267,103.933 61.412 C 104.153 61.556,104.333 61.780,104.333 61.909 C 104.333 62.038,104.476 62.189,104.650 62.245 C 104.824 62.300,105.011 62.521,105.065 62.736 C 105.119 62.951,105.303 63.164,105.475 63.208 C 105.646 63.253,105.840 63.502,105.905 63.761 C 105.970 64.021,106.206 64.424,106.430 64.658 C 107.393 65.664,107.500 65.794,107.500 65.957 C 107.500 66.051,107.688 66.251,107.917 66.401 C 108.146 66.551,108.333 66.773,108.333 66.895 C 108.333 67.016,108.476 67.245,108.651 67.403 C 108.826 67.561,109.059 67.908,109.169 68.173 C 109.279 68.438,109.511 68.701,109.685 68.756 C 109.858 68.811,110.000 68.962,110.000 69.091 C 110.000 69.220,110.188 69.449,110.417 69.599 C 110.646 69.749,110.833 69.964,110.833 70.077 C 110.833 70.190,110.951 70.519,111.096 70.808 C 111.437 71.491,112.167 71.566,112.167 70.917 C 112.167 70.564,112.089 70.500,111.663 70.500 C 111.293 70.500,111.120 70.400,111.016 70.125 C 110.937 69.918,110.527 69.374,110.105 68.916 C 109.683 68.458,109.336 68.037,109.335 67.981 C 109.333 67.875,108.631 66.942,107.907 66.083 C 106.869 64.853,106.000 63.689,106.000 63.529 C 106.000 63.454,105.831 63.231,105.625 63.032 C 105.419 62.834,105.086 62.464,104.885 62.211 C 104.685 61.957,104.291 61.478,104.010 61.145 C 103.730 60.812,103.500 60.469,103.500 60.383 C 103.500 60.297,103.313 60.064,103.083 59.864 C 102.854 59.665,102.667 59.436,102.667 59.355 C 102.667 59.275,102.396 58.918,102.066 58.563 C 101.736 58.207,101.296 57.653,101.089 57.331 C 100.881 57.009,100.589 56.643,100.439 56.519 C 100.289 56.394,100.167 56.214,100.167 56.118 C 100.167 56.022,100.045 55.809,99.897 55.645 C 99.749 55.481,99.569 55.100,99.497 54.798 L 99.367 54.250 99.350 54.756 M224.500 54.738 C 224.500 55.032,224.396 55.158,224.125 55.197 C 223.919 55.226,223.678 55.414,223.590 55.614 C 223.502 55.814,223.259 56.057,223.048 56.152 C 222.838 56.248,222.667 56.401,222.667 56.492 C 222.667 56.583,222.442 56.774,222.167 56.917 C 221.892 57.059,221.669 57.305,221.672 57.463 C 221.676 57.727,221.691 57.725,221.852 57.449 C 221.948 57.284,222.208 57.079,222.430 56.995 C 222.652 56.911,222.833 56.732,222.833 56.599 C 222.833 56.465,222.977 56.310,223.152 56.255 C 223.327 56.199,223.588 55.975,223.731 55.756 C 223.874 55.537,224.162 55.333,224.371 55.304 C 224.763 55.248,225.052 54.333,224.678 54.333 C 224.580 54.333,224.500 54.516,224.500 54.738 M303.667 54.738 C 303.667 55.032,303.563 55.158,303.292 55.197 C 303.085 55.226,302.844 55.415,302.756 55.616 C 302.668 55.817,302.426 56.024,302.219 56.076 C 302.012 56.128,301.763 56.320,301.666 56.502 C 301.568 56.684,301.380 56.833,301.247 56.833 C 301.019 56.833,300.630 57.136,299.480 58.208 C 299.210 58.460,298.921 58.667,298.839 58.667 C 298.756 58.667,298.644 58.809,298.589 58.983 C 298.533 59.158,298.303 59.347,298.077 59.403 C 297.851 59.460,297.667 59.578,297.667 59.666 C 297.667 59.753,297.423 59.949,297.125 60.101 C 296.578 60.379,296.337 60.567,295.528 61.344 C 295.283 61.578,294.962 61.816,294.815 61.871 C 294.667 61.926,294.504 62.147,294.452 62.361 L 294.357 62.750 294.615 62.375 C 294.758 62.169,294.952 62.000,295.048 62.000 C 295.144 62.000,295.416 61.817,295.653 61.594 C 296.512 60.782,297.298 60.167,297.474 60.167 C 297.574 60.167,297.735 60.017,297.833 59.833 C 297.931 59.650,298.108 59.500,298.226 59.500 C 298.344 59.500,298.591 59.331,298.775 59.125 C 299.135 58.723,300.281 57.788,300.533 57.691 C 300.617 57.659,300.858 57.471,301.069 57.275 C 301.280 57.078,301.657 56.767,301.908 56.583 C 302.159 56.400,302.563 56.052,302.807 55.811 C 303.051 55.569,303.419 55.320,303.625 55.258 C 304.004 55.143,304.187 54.333,303.833 54.333 C 303.742 54.333,303.667 54.516,303.667 54.738 M322.667 54.774 C 322.667 55.079,321.668 56.653,321.260 56.991 C 321.117 57.110,321.000 57.307,321.000 57.428 C 321.000 57.549,320.833 57.765,320.630 57.907 C 320.321 58.123,320.308 58.167,320.550 58.167 C 320.710 58.167,320.926 57.979,321.030 57.750 C 321.135 57.521,321.279 57.333,321.351 57.333 C 321.579 57.333,322.660 55.575,322.770 55.026 C 322.828 54.737,322.828 54.500,322.771 54.500 C 322.714 54.500,322.667 54.623,322.667 54.774 M220.417 58.276 C 220.050 58.606,219.432 59.166,219.043 59.521 C 218.655 59.876,218.259 60.167,218.165 60.167 C 218.070 60.167,217.907 60.354,217.803 60.583 C 217.699 60.813,217.526 61.000,217.420 61.000 C 217.314 61.000,217.070 61.169,216.879 61.375 C 216.688 61.581,216.255 61.938,215.917 62.167 C 215.180 62.666,214.494 63.226,213.725 63.958 C 213.412 64.256,213.083 64.500,212.994 64.500 C 212.906 64.500,212.833 64.612,212.833 64.750 C 212.833 64.887,212.723 65.000,212.587 65.000 C 212.452 65.000,212.218 65.188,212.068 65.417 C 211.918 65.646,211.695 65.833,211.574 65.833 C 211.452 65.833,211.254 65.966,211.134 66.128 C 211.015 66.290,210.705 66.557,210.447 66.722 C 209.900 67.072,209.715 67.229,208.545 68.339 C 208.066 68.794,207.596 69.167,207.500 69.167 C 207.404 69.167,207.244 69.348,207.143 69.569 C 207.042 69.791,206.819 70.009,206.646 70.054 C 206.402 70.117,206.339 70.277,206.358 70.776 C 206.380 71.321,206.394 71.344,206.455 70.932 C 206.544 70.335,207.995 68.922,210.456 67.036 C 210.661 66.879,211.044 66.563,211.307 66.333 C 211.571 66.104,212.186 65.579,212.674 65.167 C 213.163 64.754,213.680 64.304,213.824 64.167 C 213.968 64.029,214.554 63.549,215.126 63.100 C 215.698 62.651,216.167 62.225,216.167 62.153 C 216.167 62.081,216.298 61.980,216.458 61.928 C 216.720 61.844,217.678 61.043,218.833 59.943 C 219.063 59.725,219.588 59.292,220.000 58.981 C 220.988 58.237,221.551 57.666,221.292 57.671 C 221.177 57.674,220.783 57.946,220.417 58.276 M319.833 58.849 C 319.604 59.101,319.229 59.579,319.000 59.911 C 318.771 60.244,318.021 61.223,317.333 62.087 C 316.646 62.951,315.708 64.155,315.250 64.762 C 314.792 65.369,314.248 66.036,314.042 66.244 C 313.835 66.452,313.667 66.693,313.667 66.781 C 313.667 66.868,313.479 67.103,313.250 67.302 C 313.021 67.501,312.833 67.756,312.833 67.868 C 312.833 67.980,312.689 68.224,312.512 68.411 C 311.438 69.543,311.233 69.783,311.079 70.083 C 310.986 70.267,310.712 70.440,310.472 70.468 C 310.158 70.504,310.013 70.636,309.956 70.935 C 309.884 71.313,309.923 71.347,310.381 71.301 C 310.726 71.266,310.901 71.150,310.932 70.937 C 310.957 70.764,311.057 70.543,311.155 70.445 C 311.253 70.347,311.333 70.140,311.333 69.986 C 311.333 69.832,311.483 69.666,311.666 69.619 C 311.849 69.571,312.047 69.404,312.108 69.247 C 312.168 69.090,312.360 68.802,312.535 68.606 C 313.497 67.529,313.833 67.063,313.833 66.807 C 313.833 66.651,313.983 66.475,314.166 66.417 C 314.349 66.359,314.545 66.129,314.601 65.906 C 314.657 65.683,314.809 65.500,314.939 65.500 C 315.069 65.500,315.244 65.319,315.328 65.097 C 315.413 64.875,315.588 64.631,315.718 64.555 C 315.848 64.479,316.081 64.169,316.236 63.866 C 316.391 63.564,316.626 63.275,316.759 63.224 C 316.891 63.173,317.000 63.026,317.000 62.897 C 317.000 62.769,317.157 62.533,317.349 62.373 C 317.540 62.214,317.763 61.915,317.844 61.708 C 317.925 61.502,318.106 61.333,318.246 61.333 C 318.386 61.333,318.500 61.249,318.500 61.147 C 318.500 61.045,318.725 60.704,319.000 60.391 C 319.275 60.078,319.500 59.718,319.500 59.591 C 319.500 59.465,319.698 59.217,319.940 59.041 C 320.181 58.865,320.350 58.647,320.315 58.556 C 320.279 58.465,320.063 58.597,319.833 58.849 M293.500 63.000 C 293.402 63.183,293.228 63.333,293.113 63.333 C 292.904 63.333,292.092 63.946,291.435 64.600 C 291.242 64.792,290.915 65.038,290.708 65.147 C 290.502 65.256,290.333 65.455,290.333 65.589 C 290.333 65.723,290.187 65.833,290.008 65.833 C 289.830 65.833,289.623 65.931,289.550 66.050 C 289.477 66.169,289.154 66.447,288.833 66.667 C 288.512 66.887,288.190 67.164,288.117 67.283 C 288.043 67.402,287.876 67.500,287.746 67.500 C 287.615 67.500,287.385 67.688,287.235 67.917 C 287.085 68.146,286.884 68.333,286.790 68.333 C 286.608 68.333,286.383 68.523,285.125 69.740 C 284.383 70.458,284.040 71.333,284.500 71.333 C 284.592 71.333,284.667 71.124,284.667 70.868 C 284.667 70.405,284.886 70.163,286.586 68.750 C 286.917 68.475,287.276 68.175,287.385 68.083 C 287.494 67.992,287.948 67.654,288.395 67.333 C 288.841 67.012,289.375 66.581,289.581 66.375 C 289.786 66.169,290.027 66.000,290.114 66.000 C 290.202 66.000,290.426 65.831,290.613 65.625 C 291.018 65.178,291.465 64.801,292.583 63.965 C 293.924 62.963,294.233 62.667,293.937 62.667 C 293.795 62.667,293.598 62.817,293.500 63.000 " stroke="none" fill="#340404" fill-rule="evenodd"></path></g></svg>